<?xml version="1.0" standalone="yes"?>
<svg xmlns="http://www.w3.org/2000/svg" width="554" height="207">
<path style="fill:#010101; stroke:none;" d="M0 0L0 207L554 207L554 0L386 0L386 1C399.115 8.74576 387.491 32.0662 375 35C373.439 24.3812 373.659 10.3362 382 2C375.145 -2.68312 361.112 0 353 0L279 0L0 0z"/>
<path style="fill:#ecdac8; stroke:none;" d="M380 0L380 1L381 3L386 2L385 6L386 6L387 3L388 6L389 6L388 3L392 8L393 8C390.855 1.87326 386.061 0.463577 380 0z"/>
<path style="fill:#010101; stroke:none;" d="M383.667 0.333328L384.333 0.666672L383.667 0.333328z"/>
<path style="fill:#ecdac8; stroke:none;" d="M387.667 0.333328L388.333 0.666672L387.667 0.333328z"/>
<path style="fill:#a3c5d5; stroke:none;" d="M377 19C371.706 22.8182 373.689 32.0996 379 35L380 27L387 29C387.509 21.4162 395.71 7.40923 388 3C389.731 9.12531 385.997 14.2157 382 7L386 2C378.667 2.8264 376.066 12.3433 377 19z"/>
<path style="fill:#ecdac8; stroke:none;" d="M379 3L380 4L379 3z"/>
<path style="fill:#010101; stroke:none;" d="M386 3L384 6L385 11C388.715 8.8054 388.833 6.13524 386 3z"/>
<path style="fill:#ecdac8; stroke:none;" d="M378 6L377 13L378 13L378 6M380 6L381 11L382 11L380 6M383 6C382.492 11.3515 387.155 14.0151 389 8L388 8L385 11L383 6M389 7L390 8L389 7M392 9L393 10L392 9M391.333 10.6667L391.667 11.3333L391.333 10.6667M390 13L391 14L390 13M376.333 14.6667L376.667 15.3333L376.333 14.6667M382 14L378 23L383 23L383 18L384 18L385 21L386 21L382 14M389.333 15.6667L389.667 16.3333L389.333 15.6667M375 16L374 20L377 19L375 16z"/>
<path style="fill:#a3c5d5; stroke:none;" d="M382 17L383 18L382 17z"/>
<path style="fill:#ecdac8; stroke:none;" d="M388 17L388 22L389 22L388 17M373 20L373 29L374 29L373 20M387 22L388 23L387 22M387 24L387 29L388 29L387 24M375 25L375 27L377 25L375 25M380 27L382 32L387 30L380 27z"/>
<path style="fill:#010101; stroke:none;" d="M382 27L383 28L382 27z"/>
<path style="fill:#ecdac8; stroke:none;" d="M374 29L374 32L375 32L374 29M381 32L382 33L381 32M375 33L375 35L377 35L375 33M378.667 33.3333L379.333 33.6667L378.667 33.3333M389 52L390 52L390 49L393 50C396.181 46.2402 396.948 50.0516 396 53L399 52L398 56C402.656 49.1918 391.702 43.6608 389 52M404 61L405 61L407 54L410 55L410 54L408 53L417 48C409.74 45.2877 404.93 55.1207 404 61z"/>
<path style="fill:#a3c5d5; stroke:none;" d="M410 54L410 55L407 54C405.041 62.6737 407.523 66.589 412 74C407.118 73.7304 403.235 75.7174 404 81L406 81C408.786 77.8755 410.742 77.1543 414 80L410 79L413 86L408 86C413.088 97.1935 412.424 114.216 426 119L426 109L428 110C428 106.208 431.496 110.69 433 112L427 120L436 115L436 110L429 102L436 102C433.848 94.6856 426.445 84.4442 419 82L419 81L423 81L419 72L418 72L415 79L418 68L415 69L414 66L413 66L411 69L411 64L408 65L409 61C406.146 61 407.33 59.3142 408 57L409 57L408 60L415 56L415 51L416 51L417 54L423 53C419.159 46.0222 406.359 48.9227 410 54z"/>
<path style="fill:#ecdac8; stroke:none;" d="M418.667 47.3333L419.333 47.6667L418.667 47.3333z"/>
<path style="fill:#a3c5d5; stroke:none;" d="M393 50L390 49C390.793 53.869 396.825 58.483 399 52L396 53L398 51C396.383 48.7402 395.027 47.6986 393 50z"/>
<path style="fill:#ecdac8; stroke:none;" d="M420 48L421 49L420 48M417 49L417 52L418 52L417 49M421 49L422 50L421 49M422 50L423 53L417 54L416 51L415 51L415 56L408 60L409 57L408 57C407.209 59.2372 406.374 61 409 61L408 65L411 64L411 69L413 66L414 66L415 69L418 68L415 79L418 72L419 72L423 81L419 81L419 82C428.611 87.2233 432.428 96.977 437 106L438 106C440.558 102.678 445.741 88.932 439 88L433 75L430 86L429 86L420 63L428 60L422 50M411 51L412 52L411 51M390 53L391 54L390 53M392 54L393 55L392 54z"/>
<path style="fill:#a3c5d5; stroke:none;" d="M423 54L423 58C416.61 55.9611 414.867 58.489 412 64C415.194 63.6692 417.576 63.5071 418 60L425 58L423 54z"/>
<path style="fill:#ecdac8; stroke:none;" d="M393.667 55.3333L394.333 55.6667L393.667 55.3333M416 58L417 59L416 58z"/>
<path style="fill:#a3c5d5; stroke:none;" d="M426 59L429 62L426 59z"/>
<path style="fill:#f5b437; stroke:none;" d="M426 60L427 61L426 60M420 63L420 66L425 62L420 63z"/>
<path style="fill:#d75737; stroke:none;" d="M429 85L430 85C431.184 75.8336 433.249 69.3557 428 61C414.742 66.93 424.074 76.1194 429 85z"/>
<path style="fill:#ecdac8; stroke:none;" d="M405 62L405 65L406 65L405 62M429 62L430 63L429 62z"/>
<path style="fill:#a3c5d5; stroke:none;" d="M429 63L430 64L429 63z"/>
<path style="fill:#ecdac8; stroke:none;" d="M430 64L431 65L430 64M406 65L407 66L406 65M407.333 66.6667L407.667 67.3333L407.333 66.6667M410 66L411 67L410 66M431 66L432 67L431 66z"/>
<path style="fill:#a3c5d5; stroke:none;" d="M431 67L432 68L431 67z"/>
<path style="fill:#ecdac8; stroke:none;" d="M408.333 68.6667L408.667 69.3333L408.333 68.6667M432 68L435 71L432 68z"/>
<path style="fill:#a3c5d5; stroke:none;" d="M432 69L432 75L439 88L441 89L442 89L444 86L432 69z"/>
<path style="fill:#ecdac8; stroke:none;" d="M409 70L410 71L409 70M411 70L412 71L411 70M410 71L407 73L407 74L412 74L410 71z"/>
<path style="fill:#a3c5d5; stroke:none;" d="M420 71L421 72L420 71z"/>
<path style="fill:#f5b437; stroke:none;" d="M432 71L434 74L432 71M421 72L422 73L421 72z"/>
<path style="fill:#ecdac8; stroke:none;" d="M435 72L436 73L435 72M436 73L437 74L436 73M405.667 74.3333L406.333 74.6667L405.667 74.3333z"/>
<path style="fill:#a3c5d5; stroke:none;" d="M422 74L423 75L422 74z"/>
<path style="fill:#ecdac8; stroke:none;" d="M404 75L405 76L404 75z"/>
<path style="fill:#f5b437; stroke:none;" d="M423 75L424 76L423 75z"/>
<path style="fill:#ecdac8; stroke:none;" d="M437 75L438 76L437 75M403 76L404 77L403 76z"/>
<path style="fill:#f5b437; stroke:none;" d="M431.333 76.6667L431.667 77.3333L431.333 76.6667z"/>
<path style="fill:#ecdac8; stroke:none;" d="M438 76L439 77L438 76M404 82L413 86L410 79L414 80C410.725 75.5149 406.873 78.485 404 82z"/>
<path style="fill:#f5b437; stroke:none;" d="M424 77L425 78L424 77z"/>
<path style="fill:#010101; stroke:none;" d="M409 78L410 79L409 78z"/>
<path style="fill:#ecdac8; stroke:none;" d="M418 78L419 79L418 78M439 78L440 79L439 78M440.333 79.6667L440.667 80.3333L440.333 79.6667M403 80L404 81L403 80z"/>
<path style="fill:#a3c5d5; stroke:none;" d="M426 80L427 81L426 80z"/>
<path style="fill:#f5b437; stroke:none;" d="M430.333 81.6667L430.667 82.3333L430.333 81.6667M439.333 81.6667L439.667 82.3333L439.333 81.6667z"/>
<path style="fill:#ecdac8; stroke:none;" d="M441 81L442 82L441 81M413 82L416 88L417 88L413 82M417 82L418 83L417 82z"/>
<path style="fill:#010101; stroke:none;" d="M410 83L411 84L410 83z"/>
<path style="fill:#a3c5d5; stroke:none;" d="M428 83L429 84L428 83z"/>
<path style="fill:#ecdac8; stroke:none;" d="M442 83L443 84L442 83z"/>
<path style="fill:#f5b437; stroke:none;" d="M441 84L442 85L441 84z"/>
<path style="fill:#ecdac8; stroke:none;" d="M443 84L444 85L443 84M418 85L419 86L418 85z"/>
<path style="fill:#a3c5d5; stroke:none;" d="M429 85L430 86L429 85z"/>
<path style="fill:#d75737; stroke:none;" d="M442 85L441.728 102L450 117L451 117C452.739 104.086 453.032 94.3866 442 85z"/>
<path style="fill:#ecdac8; stroke:none;" d="M407 86L408 87L407 86z"/>
<path style="fill:#a3c5d5; stroke:none;" d="M430 86L431 87L430 86z"/>
<path style="fill:#ecdac8; stroke:none;" d="M444 86L445 87L444 86z"/>
<path style="fill:#f5b437; stroke:none;" d="M442 87L442 92L443 92L442 87z"/>
<path style="fill:#ecdac8; stroke:none;" d="M445 87L446 88L445 87M408 88L409 89L408 88M419 88L419 90L421 90L419 88z"/>
<path style="fill:#a3c5d5; stroke:none;" d="M431 88L432 89L431 88M445 88L446 89L445 88z"/>
<path style="fill:#ecdac8; stroke:none;" d="M409 89L412 104L413 104C413 98.1746 413.82 93.0146 409 89M414 89L414 93L416 89L414 89M446 89L447 90L446 89z"/>
<path style="fill:#a3c5d5; stroke:none;" d="M446 90L447 91L446 90z"/>
<path style="fill:#ecdac8; stroke:none;" d="M418.667 91.3333L419.333 91.6667L418.667 91.3333M421 91L427 101L421 91z"/>
<path style="fill:#a3c5d5; stroke:none;" d="M433 91L434 92L433 91z"/>
<path style="fill:#ecdac8; stroke:none;" d="M447 91L448 92L447 91z"/>
<path style="fill:#a3c5d5; stroke:none;" d="M434 93L436 95L434 93M448 93L449 94L448 93z"/>
<path style="fill:#ecdac8; stroke:none;" d="M414 94L414 100L415 100L416 98L415 102L415 103L418 102L416 105L417 110L422 110L428 107C424.974 100.282 420.37 97.2084 414 94M449 94L450 95L449 94M450 95L451 96L450 95z"/>
<path style="fill:#a3c5d5; stroke:none;" d="M436 96L438 98L436 96M450 96L451 97L450 96z"/>
<path style="fill:#ecdac8; stroke:none;" d="M451 97L452 98L451 97z"/>
<path style="fill:#a3c5d5; stroke:none;" d="M419 98L418 102L419 98z"/>
<path style="fill:#ecdac8; stroke:none;" d="M431 98L432 99L431 98z"/>
<path style="fill:#f5b437; stroke:none;" d="M441.333 98.6667L441.667 99.3333L441.333 98.6667z"/>
<path style="fill:#a3c5d5; stroke:none;" d="M452 99L453 100L452 99z"/>
<path style="fill:#ecdac8; stroke:none;" d="M453 100L454 101L453 100M429 105L430 105L435 102C431.828 100.896 430.091 101.891 429 105z"/>
<path style="fill:#a3c5d5; stroke:none;" d="M453 101L461 114L462 114L453 101z"/>
<path style="fill:#f5b437; stroke:none;" d="M441 102L442 103L441 102M453 102L462 121L463 121C462.604 113.675 457.757 107.343 453 102z"/>
<path style="fill:#a3c5d5; stroke:none;" d="M419 103L420 104L419 103z"/>
<path style="fill:#ecdac8; stroke:none;" d="M427 103L428 104L427 103z"/>
<path style="fill:#a3c5d5; stroke:none;" d="M441 103L442 104L441 103z"/>
<path style="fill:#ecdac8; stroke:none;" d="M455 103L456 104L455 103M441 104L442 105L441 104M413.333 105.667L413.667 106.333L413.333 105.667M430 105L436 110L436 109L430 105M442 105L443 106L442 105M456 105L457 106L456 105z"/>
<path style="fill:#a3c5d5; stroke:none;" d="M443 106L444 107L443 106z"/>
<path style="fill:#ecdac8; stroke:none;" d="M457 106L458 107L457 106M519 106L519 107L523 107L519 106z"/>
<path style="fill:#a3c5d5; stroke:none;" d="M523 106L523 107L529 107L523 106z"/>
<path style="fill:#ecdac8; stroke:none;" d="M529 106L529 107L535 107L529 106M414.333 107.667L414.667 108.333L414.333 107.667M443 107L444 108L443 107M453 107C452.492 110.773 450.386 115.219 451.027 119C453.06 130.986 462.416 135.047 448 144L449 142L443 148L448 144L436 156L442 151C438.246 156.581 431.819 165.744 434.238 172.96C437.014 181.236 457.057 180.29 464 178.391C487.59 171.938 509.935 153.864 526.96 136.965C531.892 132.069 546.274 118.086 538.486 110.703C533.769 106.231 523.931 108 518 108L518 109C523.029 109.003 531.833 108.586 535.652 112.549C540.599 117.682 532.329 129.357 527 131C525.93 135.687 522.566 138.476 519 141.576C511.615 147.996 498.774 162.794 488 161C485.696 166.147 481.035 168.827 476 171L476 164L480 164L480 162L478 155L474 154L471 158C475.163 165.007 476.836 172.212 467 174L464 170L468 170L467 166L462 170L466 175L458 174L457 174C452.718 177.167 446.027 178.165 441.083 175.278C438.08 173.524 436.764 169.282 441 169L439 165L447 164L447 160L448 163L455 158L460 158L459 160L460 160L464 153L461 158C458.4 154.708 457.234 152.307 462 151L461 146L458 146L460 150L450 151L451 147L453 149L457 146L453 146L453 145L461 145L461 144L456 140L462 142L462 141L458 139L463 138C460.029 125.488 463.569 117.396 453 107M458 107L459 108L458 107M514 107L514 108L517 108L514 107z"/>
<path style="fill:#a3c5d5; stroke:none;" d="M517 107L517 108L520 108L517 107z"/>
<path style="fill:#f5b437; stroke:none;" d="M520 107L520 108C526.133 108 538.958 106.38 540.218 115.015C541.596 124.462 527.122 136.134 521 141.424C503.832 156.256 485.965 170.991 464 178.086C453.787 181.384 439.134 179.595 433 171L431 176C439.178 181.895 465.309 187.946 472 177C478.499 176.9 485.643 171.224 491.17 167.931C506.317 158.903 523.246 147.915 533.178 132.996C536.467 128.056 545.689 118.848 542.508 112.214C539.087 105.076 526.308 107 520 107z"/>
<path style="fill:#a3c5d5; stroke:none;" d="M535 107L536 108L535 107z"/>
<path style="fill:#ecdac8; stroke:none;" d="M536.667 107.333L537.333 107.667L536.667 107.333M428 110L426 109L426 110L425 117L425 120L433 112C431.811 110.405 427.974 106.16 428 110M444 108L445 109L444 108z"/>
<path style="fill:#a3c5d5; stroke:none;" d="M454 108L455 109L454 108z"/>
<path style="fill:#ecdac8; stroke:none;" d="M510 108L510 109L513 109L513 110L511 110L511 111L517 110L517 109L510 108z"/>
<path style="fill:#a3c5d5; stroke:none;" d="M513.667 108.333L514.333 108.667L513.667 108.333z"/>
<path style="fill:#f5b437; stroke:none;" d="M515 108L515 109L517 109L517 110L511 111L511 110L513 110L513 109L501 114L498 113L496 114L496 116L476 124L477 126L474 125L475 127L472 126L473 140L474 140L475 138L479 143L493 136L489 143L484 153L485 157L484 148L478 152L477 145C469.048 145.911 467.126 142.229 463 136L462 136L458 139L462 141L462 142L456 140L461 144L461 145L453 145L453 146L457 146C455.734 149.567 453.756 147.886 451 147L450 151L460 150L458 146L461 146L462 151C456.976 151.878 457.725 155.053 461 158L464 153L459 160L460 158L459 158L455 158C452.588 161.003 449.811 163.298 447 160L447 164L439 165L441 169C437.379 169.41 437.141 172.98 440.324 175.116C444.857 178.156 453.346 177.776 457 174L458 174L466 175L462 170L467 166L468 170L464 170L467 174C476.81 172.985 476.168 164.593 471 158L474 154L478 155C477.117 158.304 477.043 160.08 480 162L480 164L476 164L476 171C481.347 169.427 486.45 166.642 488 161C497.748 164.785 513.258 147.445 520 141.576C523.515 138.516 527.072 135.834 527 131C532.768 129.967 541.785 116.999 535.581 111.883C530.844 107.977 520.794 108.732 515 108z"/>
<path style="fill:#a3c5d5; stroke:none;" d="M538 108L539 109L538 108z"/>
<path style="fill:#ecdac8; stroke:none;" d="M539 108L540 109L539 108M415.333 109.667L415.667 110.333L415.333 109.667z"/>
<path style="fill:#f5b437; stroke:none;" d="M445 109L446 110L445 109M452.333 109.667L452.667 110.333L452.333 109.667z"/>
<path style="fill:#ecdac8; stroke:none;" d="M459 109L460 110L459 109M506 109L506 110L509 110L506 109z"/>
<path style="fill:#a3c5d5; stroke:none;" d="M509 109L510 110L509 109M540 109L541 110L540 109z"/>
<path style="fill:#ecdac8; stroke:none;" d="M541 109L542 110L541 109M436 110L436 115L437 115L436 110M445 110L446 111L445 110M460 110L461 111L460 110M503.667 110.333L504.333 110.667L503.667 110.333z"/>
<path style="fill:#a3c5d5; stroke:none;" d="M505 110L506 111L505 110z"/>
<path style="fill:#ecdac8; stroke:none;" d="M542 110L544 112L542 110M46 111L46 112L49 112L46 111z"/>
<path style="fill:#f5b437; stroke:none;" d="M32 167C25.6101 164.207 17.4819 152.636 11.0039 152.636C5.94915 152.636 2.8363 159.743 5.03164 163.83C8.34917 170.006 20.4472 180.177 28 179.127C34.1359 178.273 38.0204 171.243 39.9097 166C44.9027 152.144 42.8844 137.982 40 124C47.5622 122.976 53.2443 119.407 52 111C42.0318 112.287 31.4876 114.687 22.0039 118.044C18.7929 119.181 13.5711 122.401 14.8171 126.667C16.1791 131.331 25.8952 124.94 29.1813 128.408C38.0259 137.742 32.8665 156.036 32 167z"/>
<path style="fill:#ecdac8; stroke:none;" d="M52.3333 111.667L52.6667 112.333L52.3333 111.667M239.667 111.333L240.333 111.667L239.667 111.333M421 111L422 112L421 111M446 111L447 112L446 111M500.667 111.333L501.333 111.667L500.667 111.333z"/>
<path style="fill:#a3c5d5; stroke:none;" d="M502 111L503 112L502 111M542 111L543 112L542 111z"/>
<path style="fill:#ecdac8; stroke:none;" d="M41 112L41 113L44 113L41 112M237 112L234 116L237 112z"/>
<path style="fill:#d75737; stroke:none;" d="M233 122C217.012 122.831 209.871 148.803 207.015 162C205.73 167.935 204.624 177.467 211.058 180.972C221.351 186.58 251.935 171.404 243.821 158.164C241.932 155.081 238.641 155.807 236.514 158.233C232.094 163.274 232.788 169.424 224.001 169.526C208.48 169.706 222.496 141.023 225 135C227.167 138.489 228.005 142.358 229.916 145.941C232.939 151.612 237.806 148.855 239.867 143.995C242.949 136.726 244.123 124.819 242.852 117.019C241.28 107.37 233.759 117.225 233 122z"/>
<path style="fill:#f5b437; stroke:none;" d="M241 112L242 113L241 112z"/>
<path style="fill:#ecdac8; stroke:none;" d="M416 112L419 116L416 112M423 112L424 113L423 112z"/>
<path style="fill:#f5b437; stroke:none;" d="M447 112L448 113L447 112z"/>
<path style="fill:#a3c5d5; stroke:none;" d="M457 112L458 113L457 112z"/>
<path style="fill:#ecdac8; stroke:none;" d="M461 112L462 113L461 112M498 112L499 113L498 112z"/>
<path style="fill:#a3c5d5; stroke:none;" d="M499.667 112.333L500.333 112.667L499.667 112.333M543 112L544 113L543 112z"/>
<path style="fill:#ecdac8; stroke:none;" d="M37 113L37 114L40 114L37 113M242 113L243 114L242 113M433 113L434 114L433 113M447 113L448 114L447 113z"/>
<path style="fill:#f5b437; stroke:none;" d="M451.333 113.667L451.667 114.333L451.333 113.667z"/>
<path style="fill:#ecdac8; stroke:none;" d="M496 113L498 115L496 113z"/>
<path style="fill:#a3c5d5; stroke:none;" d="M497 113L498 114L497 113z"/>
<path style="fill:#ecdac8; stroke:none;" d="M500 113L501 114L500 113M544 113L545 114L544 113M32 114L32 115L35 115L32 114M95 114L96 115L95 114z"/>
<path style="fill:#f5b437; stroke:none;" d="M96 114L97 115L96 114z"/>
<path style="fill:#d75737; stroke:none;" d="M92 126C93.6797 125.908 95.3832 125.941 96.966 125.258C108.552 120.254 94.6677 107.68 92.2284 120.039C91.8485 121.963 92.0056 124.05 92 126z"/>
<path style="fill:#ecdac8; stroke:none;" d="M101 114L102 115L101 114z"/>
<path style="fill:#a3c5d5; stroke:none;" d="M448 114L449 115L448 114z"/>
<path style="fill:#ecdac8; stroke:none;" d="M462 114L464 116L462 114M494 114L496 116L494 114z"/>
<path style="fill:#a3c5d5; stroke:none;" d="M495 114L496 115L495 114z"/>
<path style="fill:#d75737; stroke:none;" d="M543 114C538.951 136.699 510.527 156.129 492.09 166.869C486.221 170.287 478.842 176.345 472 177C463.32 186.4 446.942 180.864 436 180C461.046 220.042 510.641 202.571 536.714 173C549.911 158.034 557.07 131.415 543 114z"/>
<path style="fill:#a3c5d5; stroke:none;" d="M544 114L545 115L544 114z"/>
<path style="fill:#ecdac8; stroke:none;" d="M28 115L28 116L31 116L28 115M52.3333 115.667L52.6667 116.333L52.3333 115.667M93 115L94 116L93 115z"/>
<path style="fill:#f5b437; stroke:none;" d="M94 115L95 116L94 115z"/>
<path style="fill:#ecdac8; stroke:none;" d="M435 115L436 116L435 115M448 115L449 116L448 115z"/>
<path style="fill:#a3c5d5; stroke:none;" d="M462 115L463 116L462 115z"/>
<path style="fill:#ecdac8; stroke:none;" d="M492 115L493 116L492 115z"/>
<path style="fill:#a3c5d5; stroke:none;" d="M493 115L494 116L493 115z"/>
<path style="fill:#f5b437; stroke:none;" d="M544 115L545 116L544 115z"/>
<path style="fill:#ecdac8; stroke:none;" d="M545.333 115.667L545.667 116.333L545.333 115.667M25 116L25 117L28 117L25 116M92 116L93 117L92 116M243 116L243 119L244 119L243 116M419 116L420 117L419 116M431 119L435 116L431 119M449 116L450 117L449 116z"/>
<path style="fill:#a3c5d5; stroke:none;" d="M463 116L464 117L463 116z"/>
<path style="fill:#ecdac8; stroke:none;" d="M490 116L491 117L490 116z"/>
<path style="fill:#a3c5d5; stroke:none;" d="M491 116L492 117L491 116z"/>
<path style="fill:#ecdac8; stroke:none;" d="M22.6667 117.333L23.3333 117.667L22.6667 117.333z"/>
<path style="fill:#f5b437; stroke:none;" d="M92 117L93 118L92 117z"/>
<path style="fill:#ecdac8; stroke:none;" d="M233 117L234 118L233 117M420.667 117.333L421.333 117.667L420.667 117.333z"/>
<path style="fill:#a3c5d5; stroke:none;" d="M450 117L451 118L450 117z"/>
<path style="fill:#d75737; stroke:none;" d="M463 117C463 126.797 459.424 142.279 472 146C474.224 134.194 472.245 125.533 463 117z"/>
<path style="fill:#ecdac8; stroke:none;" d="M464 117L465 118L464 117M488 117L489 118L488 117z"/>
<path style="fill:#a3c5d5; stroke:none;" d="M489 117L490 118L489 117M545 117L546 118L545 117z"/>
<path style="fill:#ecdac8; stroke:none;" d="M19.6667 118.333L20.3333 118.667L19.6667 118.333M51 118L52 119L51 118z"/>
<path style="fill:#f5b437; stroke:none;" d="M101.333 118.667L101.667 119.333L101.333 118.667M233 118L234 119L233 118z"/>
<path style="fill:#ecdac8; stroke:none;" d="M423.667 118.333L424.333 118.667L423.667 118.333M465 118L466 119L465 118M486 118L487 119L486 118z"/>
<path style="fill:#a3c5d5; stroke:none;" d="M487 118L488 119L487 118z"/>
<path style="fill:#ecdac8; stroke:none;" d="M546 118L547 119L546 118M17 119L18 120L17 119M50.3333 119.667L50.6667 120.333L50.3333 119.667M131 119L131 120L135 123C135.688 119.955 133.758 119.451 131 119M429.667 119.333L430.333 119.667L429.667 119.333z"/>
<path style="fill:#a3c5d5; stroke:none;" d="M465 119L466 120L465 119z"/>
<path style="fill:#ecdac8; stroke:none;" d="M484 119L485 120L484 119z"/>
<path style="fill:#a3c5d5; stroke:none;" d="M485 119L486 120L485 119z"/>
<path style="fill:#ecdac8; stroke:none;" d="M488 119L489 120L488 119z"/>
<path style="fill:#a3c5d5; stroke:none;" d="M546 119L547 120L546 119z"/>
<path style="fill:#ecdac8; stroke:none;" d="M16 120L17 121L16 120M101.333 120.667L101.667 121.333L101.333 120.667M128 120L129 121L128 120z"/>
<path style="fill:#f5b437; stroke:none;" d="M129 120L130 121L129 120z"/>
<path style="fill:#d75737; stroke:none;" d="M123 131C101.907 126.665 92.1758 184.152 123 175.505C126.263 174.59 129.127 172.927 131.532 170.532C134.762 167.315 136.606 163.284 137.971 159C139.753 153.41 140.951 147.87 141 142C127.448 142.744 132.676 160.439 123.812 167.663C119.244 171.385 114.785 166.344 113.348 162C110.862 154.484 115.064 147.094 117 140L118 140L117 146C128.523 145.721 133.497 130.028 135 120C127.894 120.389 124.896 124.435 123 131z"/>
<path style="fill:#ecdac8; stroke:none;" d="M232.333 120.667L232.667 121.333L232.333 120.667M427.667 120.333L428.333 120.667L427.667 120.333z"/>
<path style="fill:#a3c5d5; stroke:none;" d="M452 120L453 121L452 120z"/>
<path style="fill:#ecdac8; stroke:none;" d="M466 120L467 121L466 120M481.667 120.333L482.333 120.667L481.667 120.333z"/>
<path style="fill:#a3c5d5; stroke:none;" d="M483 120L484 121L483 120z"/>
<path style="fill:#f5b437; stroke:none;" d="M546 120L547 121L546 120z"/>
<path style="fill:#ecdac8; stroke:none;" d="M547.333 120.667L547.667 121.333L547.333 120.667M15.3333 121.667L15.6667 122.333L15.3333 121.667M49 121L50 122L49 121M91.3333 121.667L91.6667 122.333L91.3333 121.667z"/>
<path style="fill:#f5b437; stroke:none;" d="M127 121L128 122L127 121z"/>
<path style="fill:#ecdac8; stroke:none;" d="M479 121L480 122L479 121z"/>
<path style="fill:#a3c5d5; stroke:none;" d="M480 121L481 122L480 121z"/>
<path style="fill:#ecdac8; stroke:none;" d="M47.6667 122.333L48.3333 122.667L47.6667 122.333z"/>
<path style="fill:#f5b437; stroke:none;" d="M126 122L127 123L126 122z"/>
<path style="fill:#ecdac8; stroke:none;" d="M226 122L227 123L226 122z"/>
<path style="fill:#f5b437; stroke:none;" d="M227 122L228 123L227 122z"/>
<path style="fill:#ecdac8; stroke:none;" d="M467 122L468 123L467 122M474 124L474 125L477 126L477 125L475 125L475 124L478 125L479 123L474 124z"/>
<path style="fill:#a3c5d5; stroke:none;" d="M547 122L548 123L547 122z"/>
<path style="fill:#ecdac8; stroke:none;" d="M14.3333 123.667L14.6667 124.333L14.3333 123.667M43 123L43 124L46 124L43 123z"/>
<path style="fill:#f5b437; stroke:none;" d="M91.3333 123.667L91.6667 124.333L91.3333 123.667z"/>
<path style="fill:#ecdac8; stroke:none;" d="M100 123L101 124L100 123M125 123L126 124L125 123z"/>
<path style="fill:#f5b437; stroke:none;" d="M134 123L135 124L134 123z"/>
<path style="fill:#ecdac8; stroke:none;" d="M149 123L150 124L149 123M224 123L225 124L224 123z"/>
<path style="fill:#f5b437; stroke:none;" d="M225 123L226 124L225 123z"/>
<path style="fill:#ecdac8; stroke:none;" d="M368.667 123.333L369.333 123.667L368.667 123.333z"/>
<path style="fill:#a3c5d5; stroke:none;" d="M454 123L455 124L454 123z"/>
<path style="fill:#ecdac8; stroke:none;" d="M468 123L469 124L468 123z"/>
<path style="fill:#a3c5d5; stroke:none;" d="M477 123L478 124L477 123z"/>
<path style="fill:#ecdac8; stroke:none;" d="M479 123L480 124L479 123M548.333 123.667L548.667 124.333L548.333 123.667M40 124L40 127L41 127L40 124M99 124L100 125L99 124z"/>
<path style="fill:#f5b437; stroke:none;" d="M125 124L126 125L125 124z"/>
<path style="fill:#ecdac8; stroke:none;" d="M134 124L135 125L134 124M143 131L144 131L147 125C143.268 124.916 142.53 127.733 143 131z"/>
<path style="fill:#f5b437; stroke:none;" d="M140 179L157 174.329L170.981 174.757L176 170C167.874 167.424 160.332 167.448 152 169L166 156L155 156L156 144C158.322 144.431 160.63 144.905 163.002 144.946C165.213 144.984 174.385 143.91 171.824 139.596C170.385 137.172 164.442 138.128 162.004 136.846C157.403 134.427 155.884 129.751 152.391 126.322C150.659 124.621 148.379 123.966 146.151 125.198C141.216 127.928 145.401 134.937 146.073 139C148.377 152.943 141.979 165.6 140 179z"/>
<path style="fill:#ecdac8; stroke:none;" d="M151 124L152 125L151 124M223 124L224 125L223 124M365 124L366 125L365 124z"/>
<path style="fill:#f5b437; stroke:none;" d="M366 124L367 125L366 124z"/>
<path style="fill:#d75737; stroke:none;" d="M360 179L376 174.329L390.941 174.669L395 170C387.12 167.502 380.082 167.494 372 169L385 155L375 156L375 144C377.327 144.294 379.657 144.774 382.002 144.907C383.915 145.015 396.236 143.117 391.338 139.059C388.292 136.535 382.823 138.438 379.185 135.431C375.932 132.742 374.883 128.133 371.61 125.618C369.767 124.202 367.239 124.135 365.244 125.323C360.44 128.181 365.313 134.981 365.815 139C367.588 153.202 361.191 165.354 360 179z"/>
<path style="fill:#ecdac8; stroke:none;" d="M371 124L372 125L371 124z"/>
<path style="fill:#a3c5d5; stroke:none;" d="M468 124L469 125L468 124M475 124L476 125L475 124z"/>
<path style="fill:#ecdac8; stroke:none;" d="M91 125L92 126L91 125M97 125L98 126L97 125M124 125L125 126L124 125M152 125L153 126L152 125M222 125L223 126L222 125M363 125L364 126L363 125M372 125L373 126L372 125M469 125L470 126L469 125M472 125L475 127L475 126L472 125z"/>
<path style="fill:#a3c5d5; stroke:none;" d="M473 125L474 126L473 125z"/>
<path style="fill:#ecdac8; stroke:none;" d="M478 125L479 126L478 125M514.667 125.333L515.333 125.667L514.667 125.333z"/>
<path style="fill:#a3c5d5; stroke:none;" d="M548.333 125.667L548.667 126.333L548.333 125.667z"/>
<path style="fill:#ecdac8; stroke:none;" d="M26 126L26 127L29 127L26 126M93.6667 126.333L94.3333 126.667L93.6667 126.333z"/>
<path style="fill:#f5b437; stroke:none;" d="M124 126L125 127L124 126z"/>
<path style="fill:#ecdac8; stroke:none;" d="M133.333 126.667L133.667 127.333L133.333 126.667M153.333 126.667L153.667 127.333L153.333 126.667M362 126L363 127L362 126M470.667 126.333L471.333 126.667L470.667 126.333M22.6667 127.333L23.3333 127.667L22.6667 127.333M29.3333 127.667L29.6667 128.333L29.3333 127.667M123 127L124 128L123 127z"/>
<path style="fill:#f5b437; stroke:none;" d="M221 127L222 128L221 127M362 127L363 128L362 127z"/>
<path style="fill:#ecdac8; stroke:none;" d="M373 127L374 128L373 127M549.333 127.667L549.667 128.333L549.333 127.667M14 128L15 129L14 128M18 128L18 129L21 129L18 128z"/>
<path style="fill:#f5b437; stroke:none;" d="M123 128L124 129L123 128M132 128L133 129L132 128z"/>
<path style="fill:#ecdac8; stroke:none;" d="M154.333 128.667L154.667 129.333L154.333 128.667M220 128L221 129L220 128M293 128L293 129L300 130L293 128M404 128L404 129L409 129L404 128z"/>
<path style="fill:#a3c5d5; stroke:none;" d="M457 128L458 129L457 128z"/>
<path style="fill:#f5b437; stroke:none;" d="M462.333 128.667L462.667 129.333L462.333 128.667z"/>
<path style="fill:#ecdac8; stroke:none;" d="M479.667 128.333L480.333 128.667L479.667 128.333M520 128L521 129L520 128M15.6667 129.333L16.3333 129.667L15.6667 129.333M41.3333 129.667L41.6667 130.333L41.3333 129.667M63 129L63 130L69 131L63 129M132 129L133 130L132 129z"/>
<path style="fill:#f5b437; stroke:none;" d="M242 129L242 132L243 132L242 129z"/>
<path style="fill:#ecdac8; stroke:none;" d="M288 132L292 130L288 132z"/>
<path style="fill:#f5b437; stroke:none;" d="M297 163C300.47 165.207 303.802 167.406 305.992 171.004C307.564 173.588 307.671 178.277 310.433 179.928C318.998 185.049 324.145 162.969 325 158C320.025 158.12 316.52 158.88 315 164L304 158C308.03 152.396 320.572 145.871 320.172 138.148C319.998 134.793 315.437 134.668 312.999 133.961C307.29 132.307 294.511 125.798 289.603 131.434C287.263 134.121 288 138.716 288 142C287.999 150.137 282.515 170.744 288.028 177.381C295.254 186.082 297 165.732 297 163z"/>
<path style="fill:#ecdac8; stroke:none;" d="M333 129L333 130L338 133C338.078 129.891 335.799 129.438 333 129M354 129L354 130L357 130L357 134L358 134L354 129z"/>
<path style="fill:#f5b437; stroke:none;" d="M362 129L363 130L362 129z"/>
<path style="fill:#ecdac8; stroke:none;" d="M374 129L375 130L374 129M402 129L403 130L402 129z"/>
<path style="fill:#f5b437; stroke:none;" d="M403 129L404 130L403 129z"/>
<path style="fill:#d75737; stroke:none;" d="M399 179C408.569 178.476 408.978 171.075 409 163C415.356 167.051 417.129 176.92 422.43 179.878C430.962 184.639 435.382 163.783 437 159C431.05 157.385 428.152 160.161 425 165L415 158C421.935 151.084 431.448 145.618 432 135C423.884 134.629 411.711 126.774 404.059 129.757C398.738 131.831 400.158 138.488 399.961 143C399.431 155.098 399 166.877 399 179z"/>
<path style="fill:#f5b437; stroke:none;" d="M409 129L410 130L409 129z"/>
<path style="fill:#ecdac8; stroke:none;" d="M410 129L411 130L410 129M475 129L479 131L475 129M518 129L519 130L518 129z"/>
<path style="fill:#a3c5d5; stroke:none;" d="M549.333 129.667L549.667 130.333L549.333 129.667z"/>
<path style="fill:#ecdac8; stroke:none;" d="M30.3333 130.667L30.6667 131.333L30.3333 130.667M61 130L59 133L61 130z"/>
<path style="fill:#f5b437; stroke:none;" d="M62 130L63 131L62 130z"/>
<path style="fill:#d75737; stroke:none;" d="M85 131C67.4553 131.424 79.6969 159.143 69.6057 168.743C64.6087 173.497 60.8698 165.958 60.8665 161.576C60.8587 151.092 65.8067 140.814 69 131C60.4297 128.672 58.1089 136.216 55.6921 143C52.8619 150.945 48.1737 162.723 52.3179 170.985C59.1507 184.606 76.1137 176.527 80.662 166C82.5648 161.596 83.5757 156.758 84 152C84.6296 144.94 85 138.102 85 131z"/>
<path style="fill:#ecdac8; stroke:none;" d="M80.6667 130.333L81.3333 130.667L80.6667 130.333z"/>
<path style="fill:#f5b437; stroke:none;" d="M82 130L83 131L82 130z"/>
<path style="fill:#ecdac8; stroke:none;" d="M83.6667 130.333L84.3333 130.667L83.6667 130.333M96 130L97 131L96 130z"/>
<path style="fill:#f5b437; stroke:none;" d="M97 130L97 131L100 131L97 130z"/>
<path style="fill:#ecdac8; stroke:none;" d="M100 130L101 136L102 136L100 130M117 130L118 131L117 130z"/>
<path style="fill:#f5b437; stroke:none;" d="M118 130L119 131L118 130M122 130L123 131L122 130M131 130L132 131L131 130z"/>
<path style="fill:#ecdac8; stroke:none;" d="M155 130L156 131L155 130M219 130L220 131L219 130M301.667 130.333L302.333 130.667L301.667 130.333M331 130L332 131L331 130z"/>
<path style="fill:#f5b437; stroke:none;" d="M336 154L337 154C338.332 158.872 347.161 186.495 354.82 174.606C357.171 170.956 355.033 165.066 355.005 161C354.931 150.659 356.993 140.356 357 130C346.126 130.566 346.187 139.96 346 149C343.39 144.413 341.044 132.566 335.787 130.647C331.337 129.023 328.652 133.313 328.069 137.004C326.449 147.279 322.279 165.811 325.319 175.768C326.54 179.77 331.978 178.344 333.821 175.581C335.57 172.96 334.994 168.982 335 166C335.008 161.918 335.49 158.036 336 154z"/>
<path style="fill:#ecdac8; stroke:none;" d="M350.667 130.333L351.333 130.667L350.667 130.333z"/>
<path style="fill:#f5b437; stroke:none;" d="M401 130L402 131L401 130M412 130L413 131L412 130z"/>
<path style="fill:#ecdac8; stroke:none;" d="M413.667 130.333L414.333 130.667L413.667 130.333M498 130L499 131L498 130M514 130L515 131L514 130M550 130L550 134L551 134L550 130M77.6667 131.333L78.3333 131.667L77.6667 131.333M85 131L85 140L86 140L85 131M93 131L91 135L92 135L93 131z"/>
<path style="fill:#f5b437; stroke:none;" d="M94 131L95 132L94 131z"/>
<path style="fill:#d75737; stroke:none;" d="M101 131C86.803 131.343 90.0515 155.313 89.9992 166C89.9825 169.424 88.0368 175.686 90.0424 178.642C91.9402 181.439 96.2487 179.936 97.821 177.581C100.234 173.966 99.0226 167.212 99.5756 163C100.144 158.67 99.908 154.353 100.015 150C100.17 143.643 101 137.397 101 131z"/>
<path style="fill:#ecdac8; stroke:none;" d="M115 131L116 132L115 131M131 131L132 132L131 131M218 131L219 132L218 131M304 131L304 132L307 132L304 131M329 131L330 132L329 131M349 131L350 132L349 131M363 131L364 132L363 131M375 131L376 132L375 131z"/>
<path style="fill:#f5b437; stroke:none;" d="M400 131L401 132L400 131M416 131L417 132L416 131z"/>
<path style="fill:#ecdac8; stroke:none;" d="M417 131L418 132L417 131z"/>
<path style="fill:#a3c5d5; stroke:none;" d="M459 131L460 132L459 131z"/>
<path style="fill:#ecdac8; stroke:none;" d="M31.3333 132.667L31.6667 133.333L31.3333 132.667z"/>
<path style="fill:#f5b437; stroke:none;" d="M68 132L69 133L68 132z"/>
<path style="fill:#ecdac8; stroke:none;" d="M76 132L77 133L76 132M113 132L114 133L113 132z"/>
<path style="fill:#f5b437; stroke:none;" d="M114 132L115 133L114 132z"/>
<path style="fill:#ecdac8; stroke:none;" d="M144.333 132.667L144.667 133.333L144.333 132.667M156 132L157 133L156 132z"/>
<path style="fill:#f5b437; stroke:none;" d="M218 132L219 133L218 132z"/>
<path style="fill:#ecdac8; stroke:none;" d="M242 132L242 136L243 136L242 132M264 132L265 133L264 132z"/>
<path style="fill:#f5b437; stroke:none;" d="M265 132L266 133L265 132z"/>
<path style="fill:#d75737; stroke:none;" d="M252 154C252 158.277 251.6 162.797 252.519 167C254.89 177.849 264.685 180.276 272.985 173.61C284.715 164.189 291.421 133.24 269 132.279C261.546 131.959 254.928 138.098 251.272 144C248.939 147.766 246.831 152.267 252 154z"/>
<path style="fill:#f5b437; stroke:none;" d="M271 132L272 133L271 132z"/>
<path style="fill:#ecdac8; stroke:none;" d="M272.667 132.333L273.333 132.667L272.667 132.333M308.667 132.333L309.333 132.667L308.667 132.333M328.333 132.667L328.667 133.333L328.333 132.667M376 132L377 133L376 132z"/>
<path style="fill:#f5b437; stroke:none;" d="M419 132L420 133L419 132z"/>
<path style="fill:#ecdac8; stroke:none;" d="M420.667 132.333L421.333 132.667L420.667 132.333M479 132L480 133L479 132M513 132L514 133L513 132M42 133L42 137L43 137L42 133z"/>
<path style="fill:#f5b437; stroke:none;" d="M59 133L60 134L59 133z"/>
<path style="fill:#ecdac8; stroke:none;" d="M68.3333 133.667L68.6667 134.333L68.3333 133.667z"/>
<path style="fill:#f5b437; stroke:none;" d="M130 133L131 134L130 133z"/>
<path style="fill:#ecdac8; stroke:none;" d="M157 133L158 134L157 133M217 133L218 134L217 133M261 133L262 134L261 133z"/>
<path style="fill:#f5b437; stroke:none;" d="M262 133L263 134L262 133M274 133L275 134L274 133z"/>
<path style="fill:#ecdac8; stroke:none;" d="M275 133L276 134L275 133M311.667 133.333L312.333 133.667L311.667 133.333M347.333 133.667L347.667 134.333L347.333 133.667M364.333 133.667L364.667 134.333L364.333 133.667M377 133L378 134L377 133M423.667 133.333L424.333 133.667L423.667 133.333M58.3333 134.667L58.6667 135.333L58.3333 134.667M75 134L75 137L76 137L75 134z"/>
<path style="fill:#f5b437; stroke:none;" d="M112 134L113 135L112 134z"/>
<path style="fill:#ecdac8; stroke:none;" d="M130 134L131 135L130 134M158 134L159 135L158 134z"/>
<path style="fill:#f5b437; stroke:none;" d="M217 134L218 135L217 134z"/>
<path style="fill:#ecdac8; stroke:none;" d="M259 134L260 135L259 134z"/>
<path style="fill:#f5b437; stroke:none;" d="M260 134L261 135L260 134M276 134L277 135L276 134z"/>
<path style="fill:#ecdac8; stroke:none;" d="M277 134L278 135L277 134M314 134L314 135L320 135L314 134M339 134L340 135L339 134z"/>
<path style="fill:#f5b437; stroke:none;" d="M377 134L378 135L377 134z"/>
<path style="fill:#ecdac8; stroke:none;" d="M399 134L399 141L400 141L399 134z"/>
<path style="fill:#f5b437; stroke:none;" d="M426 134L427 135L426 134z"/>
<path style="fill:#ecdac8; stroke:none;" d="M427 134L428 135L427 134z"/>
<path style="fill:#f5b437; stroke:none;" d="M428.667 134.333L429.333 134.667L428.667 134.333z"/>
<path style="fill:#ecdac8; stroke:none;" d="M430.667 134.333L431.333 134.667L430.667 134.333z"/>
<path style="fill:#f5b437; stroke:none;" d="M460 134L459 136L460 134z"/>
<path style="fill:#ecdac8; stroke:none;" d="M483 134L484 135L483 134z"/>
<path style="fill:#a3c5d5; stroke:none;" d="M550 134L550 146L551 146L550 134z"/>
<path style="fill:#f5b437; stroke:none;" d="M67 135L68 136L67 135M91 135L91 138L92 138L91 135z"/>
<path style="fill:#ecdac8; stroke:none;" d="M111 135L112 136L111 135z"/>
<path style="fill:#f5b437; stroke:none;" d="M129 135L130 136L129 135z"/>
<path style="fill:#ecdac8; stroke:none;" d="M145.333 135.667L145.667 136.333L145.333 135.667M159 135L160 136L159 135M216 135L217 136L216 135M225 135L226 136L225 135M258 135L259 136L258 135M278 135L279 136L278 135M320.333 135.667L320.667 136.333L320.333 135.667z"/>
<path style="fill:#f5b437; stroke:none;" d="M378 135L379 136L378 135z"/>
<path style="fill:#ecdac8; stroke:none;" d="M379 135L380 136L379 135M432 135L432 139L433 139L432 135z"/>
<path style="fill:#a3c5d5; stroke:none;" d="M458 135L459 136L458 135z"/>
<path style="fill:#ecdac8; stroke:none;" d="M32.3333 136.667L32.6667 137.333L32.3333 136.667M67 136L68 137L67 136M110 136L111 137L110 136M129 136L130 137L129 136M160 136L161 137L160 136M224 136L225 137L224 136z"/>
<path style="fill:#f5b437; stroke:none;" d="M226 136L227 137L226 136M257 136L258 137L257 136z"/>
<path style="fill:#ecdac8; stroke:none;" d="M279 136L280 137L279 136M340.333 136.667L340.667 137.333L340.333 136.667z"/>
<path style="fill:#f5b437; stroke:none;" d="M365 136L366 137L365 136z"/>
<path style="fill:#ecdac8; stroke:none;" d="M380 136L381 137L380 136z"/>
<path style="fill:#a3c5d5; stroke:none;" d="M457 136L458 137L457 136z"/>
<path style="fill:#ecdac8; stroke:none;" d="M479 143L475 138L472 146L477 145L478 152L484 148C482.687 151.453 481.897 154.476 485 157L484 153L489 143L493 136C487.585 136.448 482.162 138.399 479 143z"/>
<path style="fill:#d75737; stroke:none;" d="M500 136L501 137L500 136z"/>
<path style="fill:#ecdac8; stroke:none;" d="M519 136L520 137L519 136M57 137L58 138L57 137z"/>
<path style="fill:#f5b437; stroke:none;" d="M75 137L75 141L76 141L75 137M110 137L111 138L110 137z"/>
<path style="fill:#ecdac8; stroke:none;" d="M162.667 137.333L163.333 137.667L162.667 137.333M171 137L172 138L171 137M215 137L216 138L215 137M226 137L227 138L226 137z"/>
<path style="fill:#f5b437; stroke:none;" d="M256 137L257 138L256 137z"/>
<path style="fill:#ecdac8; stroke:none;" d="M280 137L281 138L280 137M298 137L299 138L298 137M321.333 137.667L321.667 138.333L321.333 137.667M327 137L327 142L328 142L327 137M365 137L365 140L366 140L365 137z"/>
<path style="fill:#f5b437; stroke:none;" d="M381 137L382 138L381 137z"/>
<path style="fill:#ecdac8; stroke:none;" d="M382 137L383 138L382 137z"/>
<path style="fill:#f5b437; stroke:none;" d="M409 137L409 144L410 144L411 137L409 137M456 137L457 138L456 137z"/>
<path style="fill:#ecdac8; stroke:none;" d="M478 137L478 138L481 138L478 137M506 137L507 138L506 137z"/>
<path style="fill:#f5b437; stroke:none;" d="M57 138L58 139L57 138M66 138L67 139L66 138z"/>
<path style="fill:#ecdac8; stroke:none;" d="M109 138L110 139L109 138M128 138L129 139L128 138M166.667 138.333L167.333 138.667L166.667 138.333M172 138L173 142L174 142L172 138z"/>
<path style="fill:#f5b437; stroke:none;" d="M215 138L216 139L215 138z"/>
<path style="fill:#ecdac8; stroke:none;" d="M223 138L224 139L223 138z"/>
<path style="fill:#f5b437; stroke:none;" d="M241.333 138.667L241.667 139.333L241.333 138.667M255 138L256 139L255 138z"/>
<path style="fill:#ecdac8; stroke:none;" d="M281 138L282 139L281 138z"/>
<path style="fill:#010101; stroke:none;" d="M298 138L298 152L310 141L298 138z"/>
<path style="fill:#ecdac8; stroke:none;" d="M300.667 138.333L301.333 138.667L300.667 138.333M341.333 138.667L341.667 139.333L341.333 138.667M346 138L346 143L347 143L346 138z"/>
<path style="fill:#f5b437; stroke:none;" d="M385 138L385 139L388 139L385 138z"/>
<path style="fill:#ecdac8; stroke:none;" d="M392 138L393 139L392 138z"/>
<path style="fill:#010101; stroke:none;" d="M410 138L410 152L422 141L410 138z"/>
<path style="fill:#ecdac8; stroke:none;" d="M412.667 138.333L413.333 138.667L412.667 138.333z"/>
<path style="fill:#f5b437; stroke:none;" d="M414 138L415 139L414 138z"/>
<path style="fill:#ecdac8; stroke:none;" d="M453 138L452 140L453 138z"/>
<path style="fill:#a3c5d5; stroke:none;" d="M454 138L455 139L454 138z"/>
<path style="fill:#f5b437; stroke:none;" d="M455 138L456 139L455 138z"/>
<path style="fill:#ecdac8; stroke:none;" d="M56.3333 139.667L56.6667 140.333L56.3333 139.667M66 139L67 140L66 139M214 139L215 140L214 139z"/>
<path style="fill:#f5b437; stroke:none;" d="M227 139L228 140L227 139z"/>
<path style="fill:#ecdac8; stroke:none;" d="M254 139L255 140L254 139M265 139L266 140L265 139z"/>
<path style="fill:#010101; stroke:none;" d="M266 139C262.892 150.386 259.912 159.55 265 171C274.949 163.317 278.772 145.686 266 139z"/>
<path style="fill:#ecdac8; stroke:none;" d="M267 139L268 140L267 139z"/>
<path style="fill:#f5b437; stroke:none;" d="M268 139L269 140L268 139M281 139L282 140L281 139z"/>
<path style="fill:#ecdac8; stroke:none;" d="M304.667 139.333L305.333 139.667L304.667 139.333M320 139L321 140L320 139M356 139L356 144L357 144L356 139M393.333 139.667L393.667 140.333L393.333 139.667M415.667 139.333L416.333 139.667L415.667 139.333z"/>
<path style="fill:#f5b437; stroke:none;" d="M417 139L418 140L417 139M449 144L455 140L449 144z"/>
<path style="fill:#d75737; stroke:none;" d="M496 139L497 140L496 139z"/>
<path style="fill:#ecdac8; stroke:none;" d="M43 140L43 149L44 149L43 140M108 140L109 141L108 140z"/>
<path style="fill:#f5b437; stroke:none;" d="M117 140L118 141L117 140z"/>
<path style="fill:#ecdac8; stroke:none;" d="M127 140L128 141L127 140z"/>
<path style="fill:#f5b437; stroke:none;" d="M214 140L215 141L214 140M222 140L223 141L222 140z"/>
<path style="fill:#ecdac8; stroke:none;" d="M227 140L228 141L227 140M241 140L242 141L241 140M253 140L254 141L253 140z"/>
<path style="fill:#f5b437; stroke:none;" d="M265 140L266 141L265 140z"/>
<path style="fill:#ecdac8; stroke:none;" d="M269 140L270 141L269 140M282 140L283 141L282 140M287 140L287 155L288 155L287 140M307 140L307 141L310 141L307 140M419.667 140.333L420.333 140.667L419.667 140.333z"/>
<path style="fill:#f5b437; stroke:none;" d="M421 140L422 141L421 140M431 140L432 141L431 140z"/>
<path style="fill:#a3c5d5; stroke:none;" d="M451 140L452 141L451 140z"/>
<path style="fill:#ecdac8; stroke:none;" d="M490 140L489 142L490 140M507 140L508 141L507 140M33 141L33 147L34 147L33 141z"/>
<path style="fill:#f5b437; stroke:none;" d="M65 141L66 142L65 141z"/>
<path style="fill:#ecdac8; stroke:none;" d="M117 141L118 142L117 141M137.667 141.333L138.333 141.667L137.667 141.333z"/>
<path style="fill:#f5b437; stroke:none;" d="M139 141L140 142L139 141z"/>
<path style="fill:#ecdac8; stroke:none;" d="M140 141L141 142L140 141M146 141L146 146L147 146L146 141M222 141L223 142L222 141M252 141L253 142L252 141M265 141L266 142L265 141M270 141L271 142L270 141z"/>
<path style="fill:#f5b437; stroke:none;" d="M282 141L283 142L282 141z"/>
<path style="fill:#ecdac8; stroke:none;" d="M310 141L311 142L310 141M319 141L320 142L319 141M342 141L343 142L342 141z"/>
<path style="fill:#f5b437; stroke:none;" d="M399 141L399 148L400 148L399 141z"/>
<path style="fill:#ecdac8; stroke:none;" d="M431 141L432 142L431 141z"/>
<path style="fill:#a3c5d5; stroke:none;" d="M450 141L451 142L450 141z"/>
<path style="fill:#ecdac8; stroke:none;" d="M55 142L56 143L55 142M65 142L66 143L65 142M107 142L108 143L107 142z"/>
<path style="fill:#f5b437; stroke:none;" d="M116.667 142.333L117.333 142.667L116.667 142.333M126 142L127 143L126 142z"/>
<path style="fill:#ecdac8; stroke:none;" d="M134 142L135 143L134 142z"/>
<path style="fill:#f5b437; stroke:none;" d="M135 142L136 143L135 142z"/>
<path style="fill:#ecdac8; stroke:none;" d="M141 142L142 143L141 142M172 142L173 143L172 142M213 142L214 143L213 142z"/>
<path style="fill:#f5b437; stroke:none;" d="M221 142L222 143L221 142M228 142L229 143L228 142M240 142L241 143L240 142M264 142L265 143L264 142z"/>
<path style="fill:#ecdac8; stroke:none;" d="M271 142L272 143L271 142M283.333 142.667L283.667 143.333L283.333 142.667M309 142L310 143L309 142M392 142L393 143L392 142z"/>
<path style="fill:#f5b437; stroke:none;" d="M421 142L422 143L421 142M430 142L431 143L430 142z"/>
<path style="fill:#a3c5d5; stroke:none;" d="M449 142L450 143L449 142z"/>
<path style="fill:#ecdac8; stroke:none;" d="M506 142L507 143L506 142z"/>
<path style="fill:#f5b437; stroke:none;" d="M55 143L56 144L55 143z"/>
<path style="fill:#ecdac8; stroke:none;" d="M116 143L115 146L116 143M126 143L127 144L126 143M133 143L134 144L133 143z"/>
<path style="fill:#f5b437; stroke:none;" d="M141.333 143.667L141.667 144.333L141.333 143.667z"/>
<path style="fill:#ecdac8; stroke:none;" d="M171 143L172 144L171 143M221 143L222 144L221 143M228 143L229 144L228 143M240.333 143.667L240.667 144.333L240.333 143.667z"/>
<path style="fill:#f5b437; stroke:none;" d="M251 143L252 144L251 143z"/>
<path style="fill:#ecdac8; stroke:none;" d="M264 143L265 144L264 143M272 143L273 144L272 143M297 143L299 153L297 143M308 143L309 144L308 143M318 143L319 144L318 143M343.333 143.667L343.667 144.333L343.333 143.667M391 143L392 144L391 143M420 143L421 144L420 143z"/>
<path style="fill:#a3c5d5; stroke:none;" d="M448 143L449 144L448 143z"/>
<path style="fill:#f5b437; stroke:none;" d="M453.667 143.333L454.333 143.667L453.667 143.333M456 143L457 144L456 143M472 143L473 144L472 143M64 144L65 145L64 144M100 144L100 149L101 149L100 144z"/>
<path style="fill:#ecdac8; stroke:none;" d="M106 144L107 145L106 144z"/>
<path style="fill:#f5b437; stroke:none;" d="M115 144L116 145L115 144z"/>
<path style="fill:#ecdac8; stroke:none;" d="M125 144L126 145L125 144M132 144L133 145L132 144M156 144L156 145L159 145L156 144M168 144L168 145L171 145L168 144M212 144L213 145L212 144M250 144L251 145L250 144z"/>
<path style="fill:#f5b437; stroke:none;" d="M283 144L284 145L283 144z"/>
<path style="fill:#ecdac8; stroke:none;" d="M307 144L308 145L307 144M317 144L318 145L317 144z"/>
<path style="fill:#f5b437; stroke:none;" d="M375 144L375 148L376 148L375 144z"/>
<path style="fill:#ecdac8; stroke:none;" d="M377 144L378 145L377 144z"/>
<path style="fill:#f5b437; stroke:none;" d="M378 144L379 145L378 144M388 144L389 145L388 144z"/>
<path style="fill:#ecdac8; stroke:none;" d="M389 144L390 145L389 144M409 144L411 153L409 144M419 144L420 145L419 144M429 144L430 145L429 144z"/>
<path style="fill:#a3c5d5; stroke:none;" d="M447 144L442 150L447 144z"/>
<path style="fill:#ecdac8; stroke:none;" d="M502 144L503 145L502 144M505 145L505 146L509 145L505 145M54 145L55 146L54 145M64 145L65 146L64 145z"/>
<path style="fill:#f5b437; stroke:none;" d="M106 145L107 146L106 145z"/>
<path style="fill:#ecdac8; stroke:none;" d="M123 145L124 146L123 145z"/>
<path style="fill:#f5b437; stroke:none;" d="M132 145L133 146L132 145z"/>
<path style="fill:#ecdac8; stroke:none;" d="M141.333 145.667L141.667 146.333L141.333 145.667M162 145L162 146L166 146L162 145z"/>
<path style="fill:#f5b437; stroke:none;" d="M212 145L213 146L212 145M220 145L221 146L220 145M229 145L230 146L229 145M239 145L240 146L239 145M250 145L251 146L250 145z"/>
<path style="fill:#ecdac8; stroke:none;" d="M263.333 145.667L263.667 146.333L263.333 145.667M273 145L274 146L273 145M306 145L307 146L306 145M316 145L317 146L316 145M344.333 145.667L344.667 146.333L344.333 145.667M381 145L381 146L385 146L381 145M418 145L419 146L418 145M428 145L429 146L428 145z"/>
<path style="fill:#f5b437; stroke:none;" d="M447 145L448 146L447 145M451 145L452 146L451 145M54 146L55 147L54 146z"/>
<path style="fill:#ecdac8; stroke:none;" d="M90 146L90 151L91 151L90 146M105 146L106 147L105 146M118 146L118 147L122 147L118 146M211.333 146.667L211.667 147.333L211.333 146.667M220 146L221 147L220 146M229 146L230 147L229 146M239 146L240 147L239 146M249 146L250 147L249 146M284 146L284 149L285 149L284 146M305 146L306 147L305 146M315 146L316 147L315 146M326 146L326 152L327 152L326 146M417 146L418 147L417 146M427 146L428 147L427 146z"/>
<path style="fill:#f5b437; stroke:none;" d="M446 146L447 147L446 146z"/>
<path style="fill:#ecdac8; stroke:none;" d="M463 146L464 147L463 146M550 146L550 149L551 149L550 146z"/>
<path style="fill:#f5b437; stroke:none;" d="M63 147L64 148L63 147z"/>
<path style="fill:#ecdac8; stroke:none;" d="M74 147L74 151L75 151L74 147z"/>
<path style="fill:#f5b437; stroke:none;" d="M84 147L84 150L85 150L84 147M105 147L106 148L105 147M114 147L115 148L114 147M230 147L231 148L230 147M238 147L239 148L238 147M274 147L275 148L274 147z"/>
<path style="fill:#ecdac8; stroke:none;" d="M304 147L305 148L304 147M314 147L315 148L314 147M365 147L365 151L366 151L365 147M416 147L417 148L416 147M426 147L427 148L426 147z"/>
<path style="fill:#f5b437; stroke:none;" d="M445 147L446 148L445 147z"/>
<path style="fill:#ecdac8; stroke:none;" d="M508 147L509 148L508 147M53 148L54 149L53 148M63 148L64 149L63 148M114 148L115 149L114 148M131 148L132 149L131 148z"/>
<path style="fill:#f5b437; stroke:none;" d="M219 148L220 149L219 148z"/>
<path style="fill:#ecdac8; stroke:none;" d="M230 148L231 149L230 148z"/>
<path style="fill:#f5b437; stroke:none;" d="M237 148L238 149L237 148z"/>
<path style="fill:#ecdac8; stroke:none;" d="M248 148L249 149L248 148M262.333 148.667L262.667 149.333L262.333 148.667M274 148L274 155L275 155L274 148M303 148L304 149L303 148M313 148L314 149L313 148M345 148L346 149L345 148M375 148L375 152L376 152L375 148z"/>
<path style="fill:#f5b437; stroke:none;" d="M415 148L416 149L415 148z"/>
<path style="fill:#ecdac8; stroke:none;" d="M425 148L426 149L425 148z"/>
<path style="fill:#f5b437; stroke:none;" d="M444 148L445 149L444 148z"/>
<path style="fill:#ecdac8; stroke:none;" d="M473 148L474 149L473 148M501 148L502 149L501 148z"/>
<path style="fill:#f5b437; stroke:none;" d="M53 149L54 150L53 149z"/>
<path style="fill:#ecdac8; stroke:none;" d="M100 149L100 155L101 155L100 149M104 149L105 150L104 149z"/>
<path style="fill:#f5b437; stroke:none;" d="M131.333 149.667L131.667 150.333L131.333 149.667M140 149L141 150L140 149z"/>
<path style="fill:#ecdac8; stroke:none;" d="M210 149L211 150L210 149M219.333 149.667L219.667 150.333L219.333 149.667M231 149L232 150L231 149M236 149L237 150L236 149z"/>
<path style="fill:#f5b437; stroke:none;" d="M248 149L249 150L248 149M284.333 149.667L284.667 150.333L284.333 149.667z"/>
<path style="fill:#ecdac8; stroke:none;" d="M301.667 149.333L302.333 149.667L301.667 149.333M312 149L313 150L312 149M413 149L414 150L413 149M424 149L425 150L424 149z"/>
<path style="fill:#f5b437; stroke:none;" d="M443 149L444 150L443 149z"/>
<path style="fill:#ecdac8; stroke:none;" d="M466 151L469 149L466 151M499 149L500 150L499 149z"/>
<path style="fill:#a3c5d5; stroke:none;" d="M549.333 149.667L549.667 150.333L549.333 149.667z"/>
<path style="fill:#f5b437; stroke:none;" d="M62 150L63 151L62 150z"/>
<path style="fill:#ecdac8; stroke:none;" d="M84 150L84 153L85 153L84 150z"/>
<path style="fill:#f5b437; stroke:none;" d="M104 150L105 151L104 150M113 150L114 151L113 150z"/>
<path style="fill:#ecdac8; stroke:none;" d="M140.333 150.667L140.667 151.333L140.333 150.667M155 150L155 156L156 156L155 150z"/>
<path style="fill:#f5b437; stroke:none;" d="M210 150L211 151L210 150z"/>
<path style="fill:#ecdac8; stroke:none;" d="M233.667 150.333L234.333 150.667L233.667 150.333M247 150L247 153L248 153L247 150M300 150L301 151L300 150M311 150L312 151L311 150M412 150L413 151L412 150z"/>
<path style="fill:#f5b437; stroke:none;" d="M422 150L423 151L422 150M442 150L443 151L442 150M446 150L444 159L441 157L438 167L439 167L438 164L443 164L448 159L448 158L445 154L445 153L450 152L446 150z"/>
<path style="fill:#ecdac8; stroke:none;" d="M471 150L472 151L471 150M9 151L9 152L13 152L9 151M52 151L53 152L52 151M62.3333 151.667L62.6667 152.333L62.3333 151.667z"/>
<path style="fill:#f5b437; stroke:none;" d="M74.3333 151.667L74.6667 152.333L74.3333 151.667M90 151L90 156L91 156L90 151z"/>
<path style="fill:#ecdac8; stroke:none;" d="M113.333 151.667L113.667 152.333L113.333 151.667z"/>
<path style="fill:#f5b437; stroke:none;" d="M218 151L219 152L218 151z"/>
<path style="fill:#ecdac8; stroke:none;" d="M284 151L284 154L285 154L284 151M299 151L300 152L299 151M310 151L311 152L310 151z"/>
<path style="fill:#f5b437; stroke:none;" d="M365 151L365 154L366 154L365 151z"/>
<path style="fill:#ecdac8; stroke:none;" d="M411 151L412 152L411 151z"/>
<path style="fill:#f5b437; stroke:none;" d="M421 151L422 152L421 151M441 151L436 159L437 159L441 151M484 151L485 152L484 151z"/>
<path style="fill:#ecdac8; stroke:none;" d="M549 151L549 154L550 154L549 151M8 152L9 153L8 152M13 152L14 153L13 152M33 152L33 157L34 157L33 152z"/>
<path style="fill:#f5b437; stroke:none;" d="M52 152L53 153L52 152z"/>
<path style="fill:#ecdac8; stroke:none;" d="M130.333 152.667L130.667 153.333L130.333 152.667M145 152L145 157L146 157L145 152M209 152L210 153L209 152M218.333 152.667L218.667 153.333L218.333 152.667z"/>
<path style="fill:#f5b437; stroke:none;" d="M261.333 152.667L261.667 153.333L261.333 152.667z"/>
<path style="fill:#ecdac8; stroke:none;" d="M308.667 152.333L309.333 152.667L308.667 152.333z"/>
<path style="fill:#f5b437; stroke:none;" d="M420 152L421 153L420 152M452 152L451 154L451 155L455 152L452 152z"/>
<path style="fill:#ecdac8; stroke:none;" d="M459 152L460 153L459 152M465 155L469 153L465 155M477 152L478 153L477 152M7 153L8 154L7 153M14 153L15 154L14 153M103 153L104 154L103 153z"/>
<path style="fill:#f5b437; stroke:none;" d="M139.333 153.667L139.667 154.333L139.333 153.667M209 153L210 154L209 153M248 153L249 154L248 153z"/>
<path style="fill:#ecdac8; stroke:none;" d="M307 153L308 154L307 153M355 153L355 168L356 168L355 153M419 153L420 154L419 153M6 154L7 155L6 154M15 154L16 155L15 154M42 154L42 158L43 158L42 154z"/>
<path style="fill:#f5b437; stroke:none;" d="M61 154L62 155L61 154M103 154L104 155L103 154M130 154L131 155L130 154z"/>
<path style="fill:#ecdac8; stroke:none;" d="M159 154L159 155L165 155L159 154M251 154L251 158L252 158L251 154M261 154L261 161L262 161L261 154M306 154L307 155L306 154M336.333 154.667L336.667 155.333L336.333 154.667M379.667 154.333L380.333 154.667L379.667 154.333z"/>
<path style="fill:#f5b437; stroke:none;" d="M381.667 154.333L382.333 154.667L381.667 154.333z"/>
<path style="fill:#ecdac8; stroke:none;" d="M383 154L384 155L383 154M418 154L419 155L418 154z"/>
<path style="fill:#a3c5d5; stroke:none;" d="M438 154L439 155L438 154z"/>
<path style="fill:#ecdac8; stroke:none;" d="M481 154L482 155L481 154M493 154L494 155L493 154z"/>
<path style="fill:#a3c5d5; stroke:none;" d="M548 154L549 155L548 154z"/>
<path style="fill:#ecdac8; stroke:none;" d="M5 155L6 156L5 155M16 155L17 156L16 155M51.3333 155.667L51.6667 156.333L51.3333 155.667M61 155L61 158L62 158L61 155z"/>
<path style="fill:#f5b437; stroke:none;" d="M112 155L112 159L113 159L112 155z"/>
<path style="fill:#ecdac8; stroke:none;" d="M139 155L140 156L139 155M165 155L166 156L165 155M208 155L209 156L208 155z"/>
<path style="fill:#f5b437; stroke:none;" d="M217.333 155.667L217.667 156.333L217.333 155.667M239 155L240 156L239 155z"/>
<path style="fill:#ecdac8; stroke:none;" d="M242 155L243 156L242 155z"/>
<path style="fill:#f5b437; stroke:none;" d="M274.333 155.667L274.667 156.333L274.333 155.667z"/>
<path style="fill:#ecdac8; stroke:none;" d="M305 155L306 156L305 155z"/>
<path style="fill:#f5b437; stroke:none;" d="M375 155L376 156L375 155z"/>
<path style="fill:#ecdac8; stroke:none;" d="M385 155L385 158L386 158L385 155M417 155L418 156L417 155z"/>
<path style="fill:#a3c5d5; stroke:none;" d="M437 155L438 156L437 155z"/>
<path style="fill:#f5b437; stroke:none;" d="M448.667 155.333L449.333 155.667L448.667 155.333z"/>
<path style="fill:#ecdac8; stroke:none;" d="M486.333 155.667L486.667 156.333L486.333 155.667M548.333 155.667L548.667 156.333L548.333 155.667M4.33333 156.667L4.66667 157.333L4.33333 156.667M17 156L18 157L17 156M73.3333 156.667L73.6667 157.333L73.3333 156.667z"/>
<path style="fill:#f5b437; stroke:none;" d="M83 156L84 157L83 156z"/>
<path style="fill:#ecdac8; stroke:none;" d="M129 156L130 157L129 156z"/>
<path style="fill:#f5b437; stroke:none;" d="M208 156L209 157L208 156z"/>
<path style="fill:#ecdac8; stroke:none;" d="M237 156L238 157L237 156z"/>
<path style="fill:#f5b437; stroke:none;" d="M243 156L244 157L243 156M283 156L284 157L283 156z"/>
<path style="fill:#ecdac8; stroke:none;" d="M304.333 156.667L304.667 157.333L304.333 156.667M337.333 156.667L337.667 157.333L337.333 156.667M416.333 156.667L416.667 157.333L416.333 156.667z"/>
<path style="fill:#a3c5d5; stroke:none;" d="M436 156L437 157L436 156z"/>
<path style="fill:#ecdac8; stroke:none;" d="M494 156L495 157L494 156M18 157L19 158L18 157z"/>
<path style="fill:#f5b437; stroke:none;" d="M51 157L52 158L51 157z"/>
<path style="fill:#ecdac8; stroke:none;" d="M83.3333 157.667L83.6667 158.333L83.3333 157.667z"/>
<path style="fill:#f5b437; stroke:none;" d="M129 157L130 158L129 157M138 157L139 158L138 157z"/>
<path style="fill:#ecdac8; stroke:none;" d="M165.333 157.667L165.667 158.333L165.333 157.667M217.333 157.667L217.667 158.333L217.333 157.667M236 157L237 158L236 157M244 157L245 158L244 157M283.333 157.667L283.667 158.333L283.333 157.667M319 157L319 158L325 158L319 157M335 157L335 172L336 172L335 157M364 157L364 160L365 160L364 157z"/>
<path style="fill:#f5b437; stroke:none;" d="M415 157L416 158L415 157z"/>
<path style="fill:#ecdac8; stroke:none;" d="M431 157L431 158L435 158L431 157z"/>
<path style="fill:#a3c5d5; stroke:none;" d="M435 157L436 158L435 157z"/>
<path style="fill:#ecdac8; stroke:none;" d="M469 157L461 167L469 157z"/>
<path style="fill:#f5b437; stroke:none;" d="M473.333 157.667L473.667 158.333L473.333 157.667z"/>
<path style="fill:#a3c5d5; stroke:none;" d="M547 157L548 158L547 157z"/>
<path style="fill:#ecdac8; stroke:none;" d="M19 158L20 159L19 158z"/>
<path style="fill:#f5b437; stroke:none;" d="M73.3333 158.667L73.6667 159.333L73.3333 158.667z"/>
<path style="fill:#ecdac8; stroke:none;" d="M138 158L139 159L138 158M207 158L208 159L207 158M235 158L236 159L235 158z"/>
<path style="fill:#f5b437; stroke:none;" d="M244 158L245 159L244 158M251 158L251 161L252 161L251 158z"/>
<path style="fill:#ecdac8; stroke:none;" d="M273 158L274 159L273 158M306 158L307 159L306 158M317.667 158.333L318.333 158.667L317.667 158.333M325 158L325 169L326 169L325 158M338.333 158.667L338.667 159.333L338.333 158.667z"/>
<path style="fill:#f5b437; stroke:none;" d="M384 158L385 159L384 158M417 158L418 159L417 158z"/>
<path style="fill:#ecdac8; stroke:none;" d="M418 158L419 159L418 158M429 158L430 159L429 158z"/>
<path style="fill:#f5b437; stroke:none;" d="M430 158L431 159L430 158M453 158L454 159L453 158z"/>
<path style="fill:#ecdac8; stroke:none;" d="M547 158L546 161L547 158M3 159L3 163L4 163L3 159M20 159L21 160L20 159M128 159L129 160L128 159M163.667 159.333L164.333 159.667L163.667 159.333z"/>
<path style="fill:#f5b437; stroke:none;" d="M207 159L208 160L207 159z"/>
<path style="fill:#ecdac8; stroke:none;" d="M245 159L245 162L246 162L245 159z"/>
<path style="fill:#f5b437; stroke:none;" d="M273 159L274 160L273 159z"/>
<path style="fill:#ecdac8; stroke:none;" d="M308 159L309 160L308 159M316 159L317 160L316 159M383 159L384 160L383 159M420 159L421 160L420 159z"/>
<path style="fill:#f5b437; stroke:none;" d="M428 159L429 160L428 159z"/>
<path style="fill:#ecdac8; stroke:none;" d="M479 159L479 161L481 161L481 159L479 159z"/>
<path style="fill:#f5b437; stroke:none;" d="M546 159L547 160L546 159z"/>
<path style="fill:#ecdac8; stroke:none;" d="M21 160L22 161L21 160M32 160L32 163L33 163L32 160M41 160L41 163L42 163L41 160z"/>
<path style="fill:#f5b437; stroke:none;" d="M82 160L83 161L82 160M128 160L129 161L128 160M137 160L138 161L137 160z"/>
<path style="fill:#ecdac8; stroke:none;" d="M144.333 160.667L144.667 161.333L144.333 160.667M161.667 160.333L162.333 160.667L161.667 160.333M234 160L235 161L234 160M282 160L283 161L282 160M309.667 160.333L310.333 160.667L309.667 160.333M315 160L316 161L315 160z"/>
<path style="fill:#f5b437; stroke:none;" d="M364 160L365 161L364 160M380 160L381 161L380 160z"/>
<path style="fill:#ecdac8; stroke:none;" d="M381.667 160.333L382.333 160.667L381.667 160.333M421 160L422 161L421 160M427 160L428 161L427 160z"/>
<path style="fill:#f5b437; stroke:none;" d="M436 160L437 161L436 160z"/>
<path style="fill:#ecdac8; stroke:none;" d="M442.333 160.667L442.667 161.333L442.333 160.667M22.6667 161.333L23.3333 161.667L22.6667 161.333M82.3333 161.667L82.6667 162.333L82.3333 161.667M113.333 161.667L113.667 162.333L113.333 161.667M137 161L138 162L137 161M155 161L155 162L159 162L155 161z"/>
<path style="fill:#f5b437; stroke:none;" d="M234 161L235 162L234 161z"/>
<path style="fill:#ecdac8; stroke:none;" d="M251 161L251 165L252 165L251 161z"/>
<path style="fill:#f5b437; stroke:none;" d="M261.333 161.667L261.667 162.333L261.333 161.667z"/>
<path style="fill:#ecdac8; stroke:none;" d="M272 161L273 162L272 161M311 161L312 162L311 161M339 161L340 162L339 161z"/>
<path style="fill:#f5b437; stroke:none;" d="M374.667 161.333L375.333 161.667L374.667 161.333z"/>
<path style="fill:#ecdac8; stroke:none;" d="M376 161L376 162L379 162L376 161z"/>
<path style="fill:#f5b437; stroke:none;" d="M422 161L423 162L422 161z"/>
<path style="fill:#ecdac8; stroke:none;" d="M426.333 161.667L426.667 162.333L426.333 161.667M440 161L441 162L440 161z"/>
<path style="fill:#a3c5d5; stroke:none;" d="M545 161L546 162L545 161z"/>
<path style="fill:#ecdac8; stroke:none;" d="M24 162L25 163L24 162M50 162L50 167L51 167L50 162z"/>
<path style="fill:#f5b437; stroke:none;" d="M60 162L61 163L60 162z"/>
<path style="fill:#ecdac8; stroke:none;" d="M72.3333 162.667L72.6667 163.333L72.3333 162.667M127 162L128 163L127 162M154 162L155 163L154 162M206.333 162.667L206.667 163.333L206.333 162.667z"/>
<path style="fill:#f5b437; stroke:none;" d="M216 162L217 163L216 162M245 162L246 163L245 162M281 162L282 163L281 162z"/>
<path style="fill:#ecdac8; stroke:none;" d="M286 162L287 163L286 162M312 162L313 163L312 162M314 162L313 164L315 164L314 162M363.333 162.667L363.667 163.333L363.333 162.667M373.333 162.667L373.667 163.333L373.333 162.667M398 162L399 163L398 162M470 162L470 164L472 164L472 162L470 162M545 162L546 163L545 162M25 163L26 164L25 163z"/>
<path style="fill:#f5b437; stroke:none;" d="M99 163L99 168L100 168L99 163M103.333 163.667L103.667 164.333L103.333 163.667M113 163L114 164L113 163M127 163L128 164L127 163z"/>
<path style="fill:#ecdac8; stroke:none;" d="M136 163L137 164L136 163M153.333 163.667L153.667 164.333L153.333 163.667M233 163L232 167L233 167L233 163M245.333 163.667L245.667 164.333L245.333 163.667M271 163L272 164L271 163M281 163L282 164L281 163M297 163L298 164L297 163M323.333 163.667L323.667 164.333L323.333 163.667M340.333 163.667L340.667 164.333L340.333 163.667M397.333 163.667L397.667 164.333L397.333 163.667M409 163L410 164L409 163z"/>
<path style="fill:#f5b437; stroke:none;" d="M424 163L426 165L424 163z"/>
<path style="fill:#ecdac8; stroke:none;" d="M425 163L426 164L425 163z"/>
<path style="fill:#f5b437; stroke:none;" d="M435 163L436 164L435 163M477 163L478 164L477 163z"/>
<path style="fill:#ecdac8; stroke:none;" d="M484 163L483 165L484 163M544.333 163.667L544.667 164.333L544.333 163.667M4 164L5 165L4 164M26 164L27 165L26 164M40.3333 164.667L40.6667 165.333L40.3333 164.667z"/>
<path style="fill:#f5b437; stroke:none;" d="M72 164L73 165L72 164z"/>
<path style="fill:#ecdac8; stroke:none;" d="M81 164L82 165L81 164M114 164L115 165L114 164M126 164L127 165L126 164M143.333 164.667L143.667 165.333L143.333 164.667z"/>
<path style="fill:#f5b437; stroke:none;" d="M206 164L207 165L206 164z"/>
<path style="fill:#ecdac8; stroke:none;" d="M262.333 164.667L262.667 165.333L262.333 164.667z"/>
<path style="fill:#f5b437; stroke:none;" d="M280 164L281 165L280 164z"/>
<path style="fill:#ecdac8; stroke:none;" d="M299 164L300 165L299 164z"/>
<path style="fill:#f5b437; stroke:none;" d="M363 164L364 165L363 164z"/>
<path style="fill:#ecdac8; stroke:none;" d="M411 164L412 165L411 164M5 165L6 166L5 165M28 165L29 166L28 165M31 165L30 167L32 167L31 165M71.3333 165.667L71.6667 166.333L71.3333 165.667M89 165L89 170L90 170L89 165M103 165L104 166L103 165z"/>
<path style="fill:#f5b437; stroke:none;" d="M114 165L115 166L114 165z"/>
<path style="fill:#ecdac8; stroke:none;" d="M135 165L136 166L135 165M270 165L271 166L270 165M280 165L281 166L280 165M286 165L287 166L286 165M301 165L302 166L301 165M341.333 165.667L341.667 166.333L341.333 165.667z"/>
<path style="fill:#f5b437; stroke:none;" d="M372 165L373 166L372 165z"/>
<path style="fill:#ecdac8; stroke:none;" d="M413 165L414 166L413 165z"/>
<path style="fill:#f5b437; stroke:none;" d="M434 165L435 166L434 165z"/>
<path style="fill:#ecdac8; stroke:none;" d="M543 165L544 166L543 165M7 166L8 167L7 166M61 166L62 167L61 166z"/>
<path style="fill:#f5b437; stroke:none;" d="M80 166L81 167L80 166z"/>
<path style="fill:#ecdac8; stroke:none;" d="M115 166L116 167L115 166M125 166L126 167L125 166M217 166L218 167L217 166z"/>
<path style="fill:#f5b437; stroke:none;" d="M233 166L234 167L233 166z"/>
<path style="fill:#ecdac8; stroke:none;" d="M244 166L245 167L244 166z"/>
<path style="fill:#f5b437; stroke:none;" d="M262 166L263 167L262 166z"/>
<path style="fill:#ecdac8; stroke:none;" d="M269 166L270 167L269 166M279 166L280 167L279 166M302 166L303 167L302 166M322.333 166.667L322.667 167.333L322.333 166.667M362.333 166.667L362.667 167.333L362.333 166.667M372 166L374 169L372 166M398 166L398 174L399 174L398 166M414 166L415 167L414 166M456 166L457 167L456 166M473 166L474 167L473 166M542 166L543 167L542 166M8 167L9 168L8 167M39 167L40 168L39 167z"/>
<path style="fill:#f5b437; stroke:none;" d="M61 167L62 168L61 167z"/>
<path style="fill:#ecdac8; stroke:none;" d="M80 167L81 168L80 167z"/>
<path style="fill:#f5b437; stroke:none;" d="M104 167L105 168L104 167z"/>
<path style="fill:#ecdac8; stroke:none;" d="M116 167L117 168L116 167M124 167L125 168L124 167M134 167L135 168L134 167M152 167L155 169L155 168L152 167M157 167L157 168L162 168L157 167M163 167L163 168L170 168L163 167M218 167L219 168L218 167M230 167L231 168L230 167z"/>
<path style="fill:#f5b437; stroke:none;" d="M231 167L232 168L231 167M252 167L253 168L252 167M269 167L270 168L269 167M278 167L279 168L278 167z"/>
<path style="fill:#ecdac8; stroke:none;" d="M303 167L304 168L303 167M342.333 167.667L342.667 168.333L342.333 167.667M376 167L376 168L379 168L376 167z"/>
<path style="fill:#f5b437; stroke:none;" d="M379 167L379 168L382 168L379 167M383.667 167.333L384.333 167.667L383.667 167.333z"/>
<path style="fill:#ecdac8; stroke:none;" d="M385 167L385 168L389 168L385 167M415 167L416 168L415 167M459 167L458 171L459 167M470 167L471 168L470 167z"/>
<path style="fill:#a3c5d5; stroke:none;" d="M541 167L542 168L541 167z"/>
<path style="fill:#ecdac8; stroke:none;" d="M9 168L10 169L9 168M62 168L63 169L62 168M70 168L71 169L70 168z"/>
<path style="fill:#f5b437; stroke:none;" d="M79 168L80 169L79 168z"/>
<path style="fill:#ecdac8; stroke:none;" d="M99 168L99 173L100 173L99 168M104 168L105 169L104 168M117 168L118 169L117 168M123 168L124 169L123 168M133 168L134 169L133 168M142.333 168.667L142.667 169.333L142.333 168.667M171.667 168.333L172.333 168.667L171.667 168.333M219 168L220 169L219 168M227.667 168.333L228.333 168.667L227.667 168.333M243 168L244 169L243 168M252.333 168.667L252.667 169.333L252.333 168.667M263 168L264 169L263 168M268 168L269 169L268 168M278 168L279 169L278 168M304 168L305 169L304 168z"/>
<path style="fill:#f5b437; stroke:none;" d="M362 168L363 169L362 168M374 168L375 169L374 168M390 168L391 169L390 168z"/>
<path style="fill:#ecdac8; stroke:none;" d="M391 168L392 169L391 168z"/>
<path style="fill:#f5b437; stroke:none;" d="M416 168L417 169L416 168M433.333 168.667L433.667 169.333L433.333 168.667z"/>
<path style="fill:#a3c5d5; stroke:none;" d="M540 168L541 169L540 168z"/>
<path style="fill:#ecdac8; stroke:none;" d="M10 169L11 170L10 169M38.3333 169.667L38.6667 170.333L38.3333 169.667z"/>
<path style="fill:#f5b437; stroke:none;" d="M51 169L52 170L51 169z"/>
<path style="fill:#ecdac8; stroke:none;" d="M63 169L64 170L63 169M69 169L70 170L69 169M79 169L80 170L79 169z"/>
<path style="fill:#f5b437; stroke:none;" d="M105 169L106 170L105 169z"/>
<path style="fill:#ecdac8; stroke:none;" d="M118 169L119 170L118 169M122 169L123 170L122 169z"/>
<path style="fill:#f5b437; stroke:none;" d="M132 169L133 170L132 169z"/>
<path style="fill:#ecdac8; stroke:none;" d="M174.667 169.333L175.333 169.667L174.667 169.333z"/>
<path style="fill:#f5b437; stroke:none;" d="M220.667 169.333L221.333 169.667L220.667 169.333z"/>
<path style="fill:#ecdac8; stroke:none;" d="M222.667 169.333L223.333 169.667L222.667 169.333z"/>
<path style="fill:#f5b437; stroke:none;" d="M224.667 169.333L225.333 169.667L224.667 169.333z"/>
<path style="fill:#ecdac8; stroke:none;" d="M242 169L243 170L242 169M264 169L265 170L264 169M267 169L268 170L267 169M277 169L278 170L277 169M305.333 169.667L305.667 170.333L305.333 169.667M321.333 169.667L321.667 170.333L321.333 169.667z"/>
<path style="fill:#f5b437; stroke:none;" d="M393 169L394 170L393 169z"/>
<path style="fill:#ecdac8; stroke:none;" d="M394 169L395 170L394 169z"/>
<path style="fill:#a3c5d5; stroke:none;" d="M539 169L538 171L539 169z"/>
<path style="fill:#ecdac8; stroke:none;" d="M11 170L12 171L11 170M51 170L52 171L51 170M64 170L65 171L64 170M68 170L69 171L68 170z"/>
<path style="fill:#f5b437; stroke:none;" d="M78 170L79 171L78 170M89 170L89 174L90 174L89 170z"/>
<path style="fill:#ecdac8; stroke:none;" d="M105 170L106 171L105 170M132 170L133 171L132 170M176.333 170.667L176.667 171.333L176.333 170.667M241 170L242 171L241 170z"/>
<path style="fill:#f5b437; stroke:none;" d="M253 170L254 171L253 170M264 170L265 171L264 170z"/>
<path style="fill:#ecdac8; stroke:none;" d="M266 170L267 171L266 170M276 170L277 171L276 170M343.333 170.667L343.667 171.333L343.333 170.667M361 170L362 171L361 170z"/>
<path style="fill:#f5b437; stroke:none;" d="M395.333 170.667L395.667 171.333L395.333 170.667z"/>
<path style="fill:#ecdac8; stroke:none;" d="M417 170L418 171L417 170M539 170L540 171L539 170M12 171L13 172L12 171M37.3333 171.667L37.6667 172.333L37.3333 171.667z"/>
<path style="fill:#f5b437; stroke:none;" d="M66 171L67 172L66 171z"/>
<path style="fill:#ecdac8; stroke:none;" d="M67 171L68 172L67 171M78 171L79 172L78 171M106 171L107 172L106 171z"/>
<path style="fill:#f5b437; stroke:none;" d="M130 171L131 172L130 171z"/>
<path style="fill:#ecdac8; stroke:none;" d="M141.333 171.667L141.667 172.333L141.333 171.667M240 171L241 172L240 171M253 171L254 172L253 171M275 171L276 172L275 171M306.333 171.667L306.667 172.333L306.333 171.667z"/>
<path style="fill:#f5b437; stroke:none;" d="M361 171L362 172L361 171M408 171L408 175L409 175L408 171z"/>
<path style="fill:#ecdac8; stroke:none;" d="M538 171L539 172L538 171M13 172L14 173L13 172M52 172L53 173L52 172M77 172L78 173L77 172M107 172L108 173L107 172M129 172L130 173L129 172M239 172L240 173L239 172z"/>
<path style="fill:#f5b437; stroke:none;" d="M274 172L275 173L274 172z"/>
<path style="fill:#ecdac8; stroke:none;" d="M286 172L286 178L287 178L286 172M320 172L320 175L321 175L320 172M344.333 172.667L344.667 173.333L344.333 172.667M395 172L396 173L395 172M418 172L419 173L418 172M537 172L538 173L537 172M14 173L15 174L14 173M36 173L37 174L36 173z"/>
<path style="fill:#f5b437; stroke:none;" d="M53 173L54 174L53 173z"/>
<path style="fill:#ecdac8; stroke:none;" d="M76 173L77 174L76 173z"/>
<path style="fill:#f5b437; stroke:none;" d="M108 173L109 174L108 173z"/>
<path style="fill:#ecdac8; stroke:none;" d="M128 173L129 174L128 173M175 173L176 174L175 173M238 173L239 174L238 173M254 173L255 174L254 173M273 173L274 174L273 173M307 173L307 176L308 176L307 173M360 173L361 174L360 173z"/>
<path style="fill:#f5b437; stroke:none;" d="M394 173L395 174L394 173z"/>
<path style="fill:#ecdac8; stroke:none;" d="M536 173L537 174L536 173M15.6667 174.333L16.3333 174.667L15.6667 174.333M35 174L36 175L35 174z"/>
<path style="fill:#f5b437; stroke:none;" d="M54 174L55 175L54 174z"/>
<path style="fill:#ecdac8; stroke:none;" d="M75 174L76 175L75 174M109 174L110 175L109 174M126 174L127 175L126 174M140.333 174.667L140.667 175.333L140.333 174.667M155 174L155 175L158 175L155 174M163 174L163 175L166 175L163 174M173.667 174.333L174.333 174.667L173.667 174.333z"/>
<path style="fill:#f5b437; stroke:none;" d="M206 174L207 175L206 174M236 174L237 175L236 174z"/>
<path style="fill:#ecdac8; stroke:none;" d="M255 174L256 175L255 174M272 174L273 175L272 174M355.333 174.667L355.667 175.333L355.333 174.667z"/>
<path style="fill:#f5b437; stroke:none;" d="M360 174L361 175L360 174M374 174L375 175L374 174z"/>
<path style="fill:#ecdac8; stroke:none;" d="M375.667 174.333L376.333 174.667L375.667 174.333M382 174L382 175L385 175L382 174z"/>
<path style="fill:#f5b437; stroke:none;" d="M385 174L386 175L385 174z"/>
<path style="fill:#ecdac8; stroke:none;" d="M393 174L394 175L393 174z"/>
<path style="fill:#f5b437; stroke:none;" d="M398 174L398 177L399 177L398 174M419 174L420 175L419 174z"/>
<path style="fill:#ecdac8; stroke:none;" d="M535 174L536 175L535 174M17 175L18 176L17 175M34 175L33 177L35 177L34 175z"/>
<path style="fill:#f5b437; stroke:none;" d="M55 175L56 176L55 175M73 175L74 176L73 175z"/>
<path style="fill:#ecdac8; stroke:none;" d="M74 175L75 176L74 175M110 175L111 176L110 175z"/>
<path style="fill:#f5b437; stroke:none;" d="M111 175L112 176L111 175M123 175L124 176L123 175z"/>
<path style="fill:#ecdac8; stroke:none;" d="M124 175L125 176L124 175M152.667 175.333L153.333 175.667L152.667 175.333M167 175L167 176L173 176L167 175M206.333 175.667L206.667 176.333L206.333 175.667M235 175L236 176L235 175z"/>
<path style="fill:#f5b437; stroke:none;" d="M256 175L257 176L256 175M270 175L271 176L270 175z"/>
<path style="fill:#ecdac8; stroke:none;" d="M271 175L272 176L271 175M296.333 175.667L296.667 176.333L296.333 175.667M334.333 175.667L334.667 176.333L334.333 175.667M345.333 175.667L345.667 176.333L345.333 175.667z"/>
<path style="fill:#f5b437; stroke:none;" d="M371 175L372 176L371 175z"/>
<path style="fill:#ecdac8; stroke:none;" d="M372 175L373 176L372 175M387.667 175.333L388.333 175.667L387.667 175.333z"/>
<path style="fill:#f5b437; stroke:none;" d="M389.667 175.333L390.333 175.667L389.667 175.333z"/>
<path style="fill:#ecdac8; stroke:none;" d="M391.667 175.333L392.333 175.667L391.667 175.333M408 175L409 176L408 175M419.333 175.667L419.667 176.333L419.333 175.667M534 175L535 176L534 175M18 176L19 177L18 176M56 176L57 177L56 176z"/>
<path style="fill:#f5b437; stroke:none;" d="M57 176L58 177L57 176z"/>
<path style="fill:#ecdac8; stroke:none;" d="M72 176L73 177L72 176M113 176L114 177L113 176z"/>
<path style="fill:#f5b437; stroke:none;" d="M114.667 176.333L115.333 176.667L114.667 176.333M118.667 176.333L119.333 176.667L118.667 176.333z"/>
<path style="fill:#ecdac8; stroke:none;" d="M120.667 176.333L121.333 176.667L120.667 176.333M150.667 176.333L151.333 176.667L150.667 176.333z"/>
<path style="fill:#f5b437; stroke:none;" d="M233 176L234 177L233 176z"/>
<path style="fill:#ecdac8; stroke:none;" d="M234 176L235 177L234 176M257 176L258 177L257 176z"/>
<path style="fill:#f5b437; stroke:none;" d="M268 176L269 177L268 176z"/>
<path style="fill:#ecdac8; stroke:none;" d="M269 176L270 177L269 176M319 176L320 177L319 176M353.667 176.333L354.333 176.667L353.667 176.333M359 176L360 177L359 176z"/>
<path style="fill:#f5b437; stroke:none;" d="M369 176L370 177L369 176z"/>
<path style="fill:#ecdac8; stroke:none;" d="M370 176L371 177L370 176z"/>
<path style="fill:#f5b437; stroke:none;" d="M407 176L408 177L407 176z"/>
<path style="fill:#ecdac8; stroke:none;" d="M431.667 176.333L432.333 176.667L431.667 176.333M533 176L534 177L533 176M19.6667 177.333L20.3333 177.667L19.6667 177.333M32 177L33 178L32 177M58 177L59 178L58 177z"/>
<path style="fill:#f5b437; stroke:none;" d="M59 177L60 178L59 177M69 177L70 178L69 177z"/>
<path style="fill:#ecdac8; stroke:none;" d="M70 177L71 178L70 177z"/>
<path style="fill:#f5b437; stroke:none;" d="M98 177L99 178L98 177z"/>
<path style="fill:#ecdac8; stroke:none;" d="M148 177L149 178L148 177M232 177L233 178L232 177M259 177L260 178L259 177z"/>
<path style="fill:#f5b437; stroke:none;" d="M260 177L261 178L260 177M266 177L267 178L266 177z"/>
<path style="fill:#ecdac8; stroke:none;" d="M267 177L268 178L267 177M294.667 177.333L295.333 177.667L294.667 177.333M318 177L319 178L318 177M332.667 177.333L333.333 177.667L332.667 177.333M346.667 177.333L347.333 177.667L346.667 177.333M351.667 177.333L352.333 177.667L351.667 177.333z"/>
<path style="fill:#f5b437; stroke:none;" d="M359 177L360 178L359 177z"/>
<path style="fill:#ecdac8; stroke:none;" d="M368 177L369 178L368 177M398.333 177.667L398.667 178.333L398.333 177.667M406 177L407 178L406 177M430 177L431 178L430 177z"/>
<path style="fill:#a3c5d5; stroke:none;" d="M433 177L434 178L433 177z"/>
<path style="fill:#ecdac8; stroke:none;" d="M532 177L533 178L532 177M21.6667 178.333L22.3333 178.667L21.6667 178.333M31 178L32 179L31 178M62.6667 178.333L63.3333 178.667L62.6667 178.333z"/>
<path style="fill:#f5b437; stroke:none;" d="M64.6667 178.333L65.3333 178.667L64.6667 178.333z"/>
<path style="fill:#ecdac8; stroke:none;" d="M66.6667 178.333L67.3333 178.667L66.6667 178.333M98 178L99 179L98 178M146.667 178.333L147.333 178.667L146.667 178.333M207 178L208 179L207 178M230 178L231 179L230 178M287 178L288 179L287 178M292.667 178.333L293.333 178.667L292.667 178.333M308.333 178.667L308.667 179.333L308.333 178.667M317 178L318 179L317 178M325.667 178.333L326.333 178.667L325.667 178.333M329 178L329 179L332 179L329 178M359 178L360 179L359 178M366 178L367 179L366 178M404.667 178.333L405.333 178.667L404.667 178.333z"/>
<path style="fill:#f5b437; stroke:none;" d="M420 178L421 179L420 178z"/>
<path style="fill:#ecdac8; stroke:none;" d="M429 178L430 179L429 178M433 178L434 179L433 178M531 178L532 179L531 178M24 179L24 180L27 180L24 179M28.6667 179.333L29.3333 179.667L28.6667 179.333z"/>
<path style="fill:#f5b437; stroke:none;" d="M89 179L91 181L89 179M96 179L97 180L96 179z"/>
<path style="fill:#ecdac8; stroke:none;" d="M97 179L98 180L97 179M141 179L141 180L145 180L141 179z"/>
<path style="fill:#f5b437; stroke:none;" d="M208 179L209 180L208 179z"/>
<path style="fill:#ecdac8; stroke:none;" d="M228 179L229 180L228 179M289 179L290 180L289 179M316 179L317 180L316 179M360 179L360 180L365 180L360 179M401 179L402 180L401 179M420 179L421 180L420 179M428 179L429 180L428 179M434 179L435 180L434 179M530 179L531 180L530 179M89 180L90 181L89 180z"/>
<path style="fill:#f5b437; stroke:none;" d="M93.6667 180.333L94.3333 180.667L93.6667 180.333z"/>
<path style="fill:#ecdac8; stroke:none;" d="M95 180L96 181L95 180z"/>
<path style="fill:#f5b437; stroke:none;" d="M209 180L210 181L209 180M225 180L226 181L225 180z"/>
<path style="fill:#ecdac8; stroke:none;" d="M226 180L227 181L226 180M309 180L310 181L309 180M314 180L315 181L314 180M421 180L422 181L421 180z"/>
<path style="fill:#f5b437; stroke:none;" d="M425 180L426 181L425 180z"/>
<path style="fill:#ecdac8; stroke:none;" d="M426 180L427 181L426 180z"/>
<path style="fill:#a3c5d5; stroke:none;" d="M435 180L436 181L435 180z"/>
<path style="fill:#ecdac8; stroke:none;" d="M529 180L530 181L529 180M210 181L211 182L210 181z"/>
<path style="fill:#f5b437; stroke:none;" d="M222 181L223 182L222 181z"/>
<path style="fill:#ecdac8; stroke:none;" d="M223 181L224 182L223 181z"/>
<path style="fill:#a3c5d5; stroke:none;" d="M436 181L437 182L436 181M527 181L528 182L527 181z"/>
<path style="fill:#ecdac8; stroke:none;" d="M528 181L529 182L528 181M212 182L213 183L212 182z"/>
<path style="fill:#f5b437; stroke:none;" d="M213 182L213 183L219 183L213 182z"/>
<path style="fill:#ecdac8; stroke:none;" d="M219.667 182.333L220.333 182.667L219.667 182.333M436 182L439 185L436 182z"/>
<path style="fill:#f5b437; stroke:none;" d="M437 182L438 183L437 182z"/>
<path style="fill:#a3c5d5; stroke:none;" d="M526 182L527 183L526 182z"/>
<path style="fill:#f5b437; stroke:none;" d="M438 183L439 184L438 183z"/>
<path style="fill:#ecdac8; stroke:none;" d="M525 183L526 184L525 183z"/>
<path style="fill:#a3c5d5; stroke:none;" d="M523 184L524 185L523 184z"/>
<path style="fill:#ecdac8; stroke:none;" d="M524 184L525 185L524 184M439 185L440 186L439 185z"/>
<path style="fill:#f5b437; stroke:none;" d="M521 185L522 186L521 185z"/>
<path style="fill:#ecdac8; stroke:none;" d="M522 185L523 186L522 185z"/>
<path style="fill:#a3c5d5; stroke:none;" d="M440 186L441 187L440 186M520 186L521 187L520 186z"/>
<path style="fill:#ecdac8; stroke:none;" d="M521 186L522 187L521 186M441 187L442 188L441 187z"/>
<path style="fill:#a3c5d5; stroke:none;" d="M518 187L519 188L518 187z"/>
<path style="fill:#ecdac8; stroke:none;" d="M519 187L520 188L519 187z"/>
<path style="fill:#a3c5d5; stroke:none;" d="M442 188L443 189L442 188z"/>
<path style="fill:#ecdac8; stroke:none;" d="M517 188L518 189L517 188M443 189L444 190L443 189z"/>
<path style="fill:#a3c5d5; stroke:none;" d="M515 189L516 190L515 189z"/>
<path style="fill:#ecdac8; stroke:none;" d="M516 189L517 190L516 189M444 190L445 191L444 190z"/>
<path style="fill:#a3c5d5; stroke:none;" d="M513 190L514 191L513 190z"/>
<path style="fill:#ecdac8; stroke:none;" d="M514 190L515 191L514 190M445 191L446 192L445 191M512 191L513 192L512 191M446 192L449 195L446 192z"/>
<path style="fill:#a3c5d5; stroke:none;" d="M447 192L448 193L447 192z"/>
<path style="fill:#ecdac8; stroke:none;" d="M510.667 192.333L511.333 192.667L510.667 192.333z"/>
<path style="fill:#a3c5d5; stroke:none;" d="M448 193L449 194L448 193M508 193L509 194L508 193z"/>
<path style="fill:#ecdac8; stroke:none;" d="M509 193L510 194L509 193z"/>
<path style="fill:#a3c5d5; stroke:none;" d="M449 194L450 195L449 194M506 194L507 195L506 194z"/>
<path style="fill:#ecdac8; stroke:none;" d="M507 194L508 195L507 194z"/>
<path style="fill:#a3c5d5; stroke:none;" d="M450 195L451 196L450 195M504 195L505 196L504 195z"/>
<path style="fill:#ecdac8; stroke:none;" d="M505 195L506 196L505 195M451 196L452 197L451 196z"/>
<path style="fill:#a3c5d5; stroke:none;" d="M452 196L453 197L452 196M502 196L503 197L502 196z"/>
<path style="fill:#ecdac8; stroke:none;" d="M503 196L504 197L503 196z"/>
<path style="fill:#a3c5d5; stroke:none;" d="M453 197L454 198L453 197M500 197L501 198L500 197z"/>
<path style="fill:#ecdac8; stroke:none;" d="M501 197L502 198L501 197M454 198L455 199L454 198z"/>
<path style="fill:#a3c5d5; stroke:none;" d="M455 198L456 199L455 198M498 198L499 199L498 198z"/>
<path style="fill:#ecdac8; stroke:none;" d="M499 198L500 199L499 198M456 199L457 200L456 199z"/>
<path style="fill:#a3c5d5; stroke:none;" d="M457 199L458 200L457 199M496 199L497 200L496 199z"/>
<path style="fill:#ecdac8; stroke:none;" d="M497 199L498 200L497 199M458 200L459 201L458 200z"/>
<path style="fill:#a3c5d5; stroke:none;" d="M459 200L460 201L459 200M494 200L495 201L494 200z"/>
<path style="fill:#ecdac8; stroke:none;" d="M495 200L496 201L495 200z"/>
<path style="fill:#a3c5d5; stroke:none;" d="M460 201L460 202L464 203L464 202L460 201z"/>
<path style="fill:#ecdac8; stroke:none;" d="M492.667 201.333L493.333 201.667L492.667 201.333M461 202L462 203L461 202z"/>
<path style="fill:#a3c5d5; stroke:none;" d="M489.667 202.333L490.333 202.667L489.667 202.333z"/>
<path style="fill:#ecdac8; stroke:none;" d="M491 202L492 203L491 202M464 203L465 204L464 203z"/>
<path style="fill:#a3c5d5; stroke:none;" d="M465 203L466 204L465 203M487 203L488 204L487 203z"/>
<path style="fill:#ecdac8; stroke:none;" d="M488 203L489 204L488 203M466 204L467 205L466 204z"/>
<path style="fill:#a3c5d5; stroke:none;" d="M467.667 204.333L468.333 204.667L467.667 204.333M484 204L485 205L484 204z"/>
<path style="fill:#ecdac8; stroke:none;" d="M485 204L486 205L485 204M470 205L470 206L474 206L470 205z"/>
<path style="fill:#a3c5d5; stroke:none;" d="M474 205L474 206L479 206L474 205z"/>
<path style="fill:#ecdac8; stroke:none;" d="M479 205L479 206L484 206L479 205z"/>
</svg>
